<mxfile host="app.diagrams.net" agent="Mozilla/5.0 (Windows NT 10.0; Win64; x64) AppleWebKit/537.36 (KHTML, like Gecko) Chrome/132.0.0.0 Safari/537.36" version="26.0.12" pages="4">
  <diagram name="Page-1" id="2og-T88qsl8-KMnIzi9V">
    <mxGraphModel dx="1249" dy="507" grid="1" gridSize="10" guides="1" tooltips="1" connect="1" arrows="1" fold="1" page="1" pageScale="1" pageWidth="827" pageHeight="1169" math="0" shadow="0">
      <root>
        <mxCell id="0" />
        <mxCell id="1" parent="0" />
        <mxCell id="xuDw8qHXgZ2XcfYWhzsR-1" value="Actor" style="shape=umlActor;verticalLabelPosition=bottom;verticalAlign=top;html=1;outlineConnect=0;" parent="1" vertex="1">
          <mxGeometry x="50" y="20" width="30" height="60" as="geometry" />
        </mxCell>
      </root>
    </mxGraphModel>
  </diagram>
  <diagram name="Basic template" id="EkxiEo9_weCnujaJg5wZ">
    <mxGraphModel dx="1098" dy="507" grid="1" gridSize="10" guides="1" tooltips="1" connect="1" arrows="1" fold="1" page="1" pageScale="1" pageWidth="827" pageHeight="1169" math="0" shadow="0">
      <root>
        <mxCell id="0" />
        <mxCell id="1" parent="0" />
        <mxCell id="_BWfPryiqQKVmlPljuu8-1" value=":Object" style="shape=umlLifeline;perimeter=lifelinePerimeter;container=1;collapsible=0;recursiveResize=0;rounded=0;shadow=0;strokeWidth=1;fillColor=#dae8fc;strokeColor=#6c8ebf;" parent="1" vertex="1">
          <mxGeometry x="65" y="20" width="100" height="300" as="geometry" />
        </mxCell>
        <mxCell id="_BWfPryiqQKVmlPljuu8-2" value="" style="points=[];perimeter=orthogonalPerimeter;rounded=0;shadow=0;strokeWidth=1;" parent="_BWfPryiqQKVmlPljuu8-1" vertex="1">
          <mxGeometry x="45" y="70" width="10" height="190" as="geometry" />
        </mxCell>
        <mxCell id="_BWfPryiqQKVmlPljuu8-4" value="" style="points=[];perimeter=orthogonalPerimeter;rounded=0;shadow=0;strokeWidth=1;" parent="_BWfPryiqQKVmlPljuu8-1" vertex="1">
          <mxGeometry x="50" y="120" width="10" height="80" as="geometry" />
        </mxCell>
        <mxCell id="_BWfPryiqQKVmlPljuu8-5" value=":Object" style="shape=umlLifeline;perimeter=lifelinePerimeter;container=1;collapsible=0;recursiveResize=0;rounded=0;shadow=0;strokeWidth=1;fillColor=#f8cecc;strokeColor=#b85450;" parent="1" vertex="1">
          <mxGeometry x="245" y="20" width="100" height="300" as="geometry" />
        </mxCell>
        <mxCell id="_BWfPryiqQKVmlPljuu8-6" value="" style="points=[];perimeter=orthogonalPerimeter;rounded=0;shadow=0;strokeWidth=1;" parent="_BWfPryiqQKVmlPljuu8-5" vertex="1">
          <mxGeometry x="45" y="80" width="10" height="160" as="geometry" />
        </mxCell>
        <mxCell id="_BWfPryiqQKVmlPljuu8-7" value="return" style="verticalAlign=bottom;endArrow=open;dashed=1;endSize=8;exitX=0;exitY=0.95;shadow=0;strokeWidth=1;rounded=0;" parent="1" source="_BWfPryiqQKVmlPljuu8-6" target="_BWfPryiqQKVmlPljuu8-2" edge="1">
          <mxGeometry relative="1" as="geometry">
            <mxPoint x="220" y="176" as="targetPoint" />
          </mxGeometry>
        </mxCell>
        <mxCell id="_BWfPryiqQKVmlPljuu8-8" value="dispatch" style="verticalAlign=bottom;endArrow=block;entryX=0;entryY=0;shadow=0;strokeWidth=1;rounded=0;" parent="1" source="_BWfPryiqQKVmlPljuu8-2" target="_BWfPryiqQKVmlPljuu8-6" edge="1">
          <mxGeometry relative="1" as="geometry">
            <mxPoint x="220" y="100" as="sourcePoint" />
          </mxGeometry>
        </mxCell>
        <mxCell id="_BWfPryiqQKVmlPljuu8-9" value="callback" style="verticalAlign=bottom;endArrow=block;entryX=1;entryY=0;shadow=0;strokeWidth=1;rounded=0;" parent="1" source="_BWfPryiqQKVmlPljuu8-6" target="_BWfPryiqQKVmlPljuu8-4" edge="1">
          <mxGeometry relative="1" as="geometry">
            <mxPoint x="185" y="140" as="sourcePoint" />
          </mxGeometry>
        </mxCell>
        <mxCell id="_BWfPryiqQKVmlPljuu8-10" value="return" style="verticalAlign=bottom;endArrow=open;dashed=1;endSize=8;exitX=1;exitY=0.95;shadow=0;strokeWidth=1;rounded=0;" parent="1" source="_BWfPryiqQKVmlPljuu8-4" target="_BWfPryiqQKVmlPljuu8-6" edge="1">
          <mxGeometry relative="1" as="geometry">
            <mxPoint x="185" y="197" as="targetPoint" />
          </mxGeometry>
        </mxCell>
      </root>
    </mxGraphModel>
  </diagram>
  <diagram name="Complex template" id="4So5PcoijYWlzy7uIPYJ">
    <mxGraphModel dx="308" dy="461" grid="1" gridSize="10" guides="1" tooltips="1" connect="1" arrows="1" fold="1" page="1" pageScale="1" pageWidth="827" pageHeight="1169" math="0" shadow="0">
      <root>
        <mxCell id="0" />
        <mxCell id="1" parent="0" />
        <mxCell id="Xf7Vv05EoHktSYIukm0--157" value="View" style="shape=umlLifeline;perimeter=lifelinePerimeter;whiteSpace=wrap;html=1;container=1;collapsible=0;recursiveResize=0;outlineConnect=0;rounded=1;shadow=0;comic=0;labelBackgroundColor=none;strokeWidth=1;fontFamily=Verdana;fontSize=12;align=center;fillColor=#ffe6cc;strokeColor=#d79b00;" parent="1" vertex="1">
          <mxGeometry x="1510" y="80" width="100" height="1440" as="geometry" />
        </mxCell>
        <mxCell id="Xf7Vv05EoHktSYIukm0--158" value="" style="html=1;points=[];perimeter=orthogonalPerimeter;rounded=0;shadow=0;comic=0;labelBackgroundColor=none;strokeWidth=1;fontFamily=Verdana;fontSize=12;align=center;" parent="Xf7Vv05EoHktSYIukm0--157" vertex="1">
          <mxGeometry x="45" y="130" width="10" height="1310" as="geometry" />
        </mxCell>
        <mxCell id="Xf7Vv05EoHktSYIukm0--170" value="" style="html=1;labelBackgroundColor=#ffffff;startArrow=none;startFill=0;startSize=6;endArrow=classic;endFill=1;endSize=6;jettySize=auto;orthogonalLoop=1;strokeWidth=1;dashed=1;fontSize=14;rounded=0;exitX=1.1;exitY=0.297;exitDx=0;exitDy=0;exitPerimeter=0;" parent="Xf7Vv05EoHktSYIukm0--157" edge="1">
          <mxGeometry width="60" height="60" relative="1" as="geometry">
            <mxPoint x="-269" y="620" as="sourcePoint" />
            <mxPoint x="50" y="620" as="targetPoint" />
          </mxGeometry>
        </mxCell>
        <mxCell id="Xf7Vv05EoHktSYIukm0--171" value="7: AskRecoverBackup (3)" style="edgeLabel;html=1;align=center;verticalAlign=middle;resizable=0;points=[];" parent="Xf7Vv05EoHktSYIukm0--170" vertex="1" connectable="0">
          <mxGeometry x="-0.0195" y="3" relative="1" as="geometry">
            <mxPoint y="-5" as="offset" />
          </mxGeometry>
        </mxCell>
        <mxCell id="Xf7Vv05EoHktSYIukm0--224" value="" style="html=1;labelBackgroundColor=#ffffff;startArrow=none;startFill=0;startSize=6;endArrow=classic;endFill=1;endSize=6;jettySize=auto;orthogonalLoop=1;strokeWidth=1;dashed=1;fontSize=14;rounded=0;entryX=0.855;entryY=0.278;entryDx=0;entryDy=0;entryPerimeter=0;" parent="Xf7Vv05EoHktSYIukm0--157" edge="1">
          <mxGeometry width="60" height="60" relative="1" as="geometry">
            <mxPoint x="240.95000000000005" y="920" as="sourcePoint" />
            <mxPoint x="55" y="920" as="targetPoint" />
          </mxGeometry>
        </mxCell>
        <mxCell id="Xf7Vv05EoHktSYIukm0--347" value="alt AskNumber" style="shape=umlFrame;whiteSpace=wrap;html=1;pointerEvents=0;width=120;height=40;" parent="Xf7Vv05EoHktSYIukm0--157" vertex="1">
          <mxGeometry x="-420" y="190" width="910" height="1100" as="geometry" />
        </mxCell>
        <mxCell id="Xf7Vv05EoHktSYIukm0--159" value="Controller" style="shape=umlLifeline;perimeter=lifelinePerimeter;whiteSpace=wrap;html=1;container=1;collapsible=0;recursiveResize=0;outlineConnect=0;rounded=1;shadow=0;comic=0;labelBackgroundColor=none;strokeWidth=1;fontFamily=Verdana;fontSize=12;align=center;fillColor=#d5e8d4;strokeColor=#82b366;" parent="1" vertex="1">
          <mxGeometry x="1710" y="80" width="100" height="1490" as="geometry" />
        </mxCell>
        <mxCell id="Xf7Vv05EoHktSYIukm0--160" value="" style="html=1;points=[];perimeter=orthogonalPerimeter;rounded=0;shadow=0;comic=0;labelBackgroundColor=none;strokeWidth=1;fontFamily=Verdana;fontSize=12;align=center;" parent="Xf7Vv05EoHktSYIukm0--159" vertex="1">
          <mxGeometry x="45" y="90" width="10" height="80" as="geometry" />
        </mxCell>
        <mxCell id="Xf7Vv05EoHktSYIukm0--161" value="1: Application launch" style="html=1;verticalAlign=bottom;endArrow=block;labelBackgroundColor=none;fontFamily=Verdana;fontSize=12;edgeStyle=elbowEdgeStyle;elbow=vertical;rounded=0;" parent="Xf7Vv05EoHktSYIukm0--159" edge="1">
          <mxGeometry relative="1" as="geometry">
            <mxPoint x="-349.5000000000001" y="99.99806451612903" as="sourcePoint" />
            <mxPoint x="45" y="99.99806451612903" as="targetPoint" />
          </mxGeometry>
        </mxCell>
        <mxCell id="Xf7Vv05EoHktSYIukm0--162" value="" style="html=1;verticalAlign=bottom;endArrow=block;entryX=0;entryY=0;labelBackgroundColor=none;fontFamily=Verdana;fontSize=12;edgeStyle=elbowEdgeStyle;elbow=vertical;rounded=0;exitX=0.937;exitY=1.001;exitDx=0;exitDy=0;exitPerimeter=0;" parent="Xf7Vv05EoHktSYIukm0--159" edge="1">
          <mxGeometry relative="1" as="geometry">
            <mxPoint x="55.000000000000114" y="140.07999999999998" as="sourcePoint" />
            <mxPoint x="245.63" y="140.00000000000017" as="targetPoint" />
          </mxGeometry>
        </mxCell>
        <mxCell id="Xf7Vv05EoHktSYIukm0--163" value="" style="html=1;points=[];perimeter=orthogonalPerimeter;rounded=0;shadow=0;comic=0;labelBackgroundColor=none;strokeWidth=1;fontFamily=Verdana;fontSize=12;align=center;" parent="Xf7Vv05EoHktSYIukm0--159" vertex="1">
          <mxGeometry x="45" y="230" width="10" height="100" as="geometry" />
        </mxCell>
        <mxCell id="Xf7Vv05EoHktSYIukm0--184" value="" style="endArrow=classic;html=1;rounded=0;exitX=1.044;exitY=0.231;exitDx=0;exitDy=0;exitPerimeter=0;entryX=0.014;entryY=0.558;entryDx=0;entryDy=0;entryPerimeter=0;" parent="Xf7Vv05EoHktSYIukm0--159" edge="1">
          <mxGeometry width="50" height="50" relative="1" as="geometry">
            <mxPoint x="56" y="268.95" as="sourcePoint" />
            <mxPoint x="245.13999999999987" y="268.34000000000003" as="targetPoint" />
          </mxGeometry>
        </mxCell>
        <mxCell id="Xf7Vv05EoHktSYIukm0--185" value="5.3: UpdateLogs" style="edgeLabel;html=1;align=center;verticalAlign=middle;resizable=0;points=[];" parent="Xf7Vv05EoHktSYIukm0--184" vertex="1" connectable="0">
          <mxGeometry x="0.0036" relative="1" as="geometry">
            <mxPoint y="-9" as="offset" />
          </mxGeometry>
        </mxCell>
        <mxCell id="Xf7Vv05EoHktSYIukm0--256" value="" style="html=1;points=[];perimeter=orthogonalPerimeter;rounded=0;shadow=0;comic=0;labelBackgroundColor=none;strokeWidth=1;fontFamily=Verdana;fontSize=12;align=center;" parent="Xf7Vv05EoHktSYIukm0--159" vertex="1">
          <mxGeometry x="45" y="420" width="10" height="100" as="geometry" />
        </mxCell>
        <mxCell id="Xf7Vv05EoHktSYIukm0--257" value="" style="endArrow=classic;html=1;rounded=0;exitX=1.044;exitY=0.231;exitDx=0;exitDy=0;exitPerimeter=0;entryX=0.014;entryY=0.558;entryDx=0;entryDy=0;entryPerimeter=0;" parent="Xf7Vv05EoHktSYIukm0--159" edge="1">
          <mxGeometry width="50" height="50" relative="1" as="geometry">
            <mxPoint x="56" y="458.95" as="sourcePoint" />
            <mxPoint x="245" y="458" as="targetPoint" />
          </mxGeometry>
        </mxCell>
        <mxCell id="Xf7Vv05EoHktSYIukm0--258" value="6.3: UpdateLogs" style="edgeLabel;html=1;align=center;verticalAlign=middle;resizable=0;points=[];" parent="Xf7Vv05EoHktSYIukm0--257" vertex="1" connectable="0">
          <mxGeometry x="0.0036" relative="1" as="geometry">
            <mxPoint y="-9" as="offset" />
          </mxGeometry>
        </mxCell>
        <mxCell id="Xf7Vv05EoHktSYIukm0--259" value="" style="endArrow=classic;html=1;rounded=0;exitX=0.838;exitY=0.15;exitDx=0;exitDy=0;exitPerimeter=0;" parent="Xf7Vv05EoHktSYIukm0--159" source="Xf7Vv05EoHktSYIukm0--256" edge="1">
          <mxGeometry width="50" height="50" relative="1" as="geometry">
            <mxPoint x="50.940000000000055" y="434.47" as="sourcePoint" />
            <mxPoint x="245" y="434.47" as="targetPoint" />
          </mxGeometry>
        </mxCell>
        <mxCell id="Xf7Vv05EoHktSYIukm0--260" value="6.2: ExecuteBackup" style="edgeLabel;html=1;align=center;verticalAlign=middle;resizable=0;points=[];" parent="Xf7Vv05EoHktSYIukm0--259" vertex="1" connectable="0">
          <mxGeometry x="0.0036" relative="1" as="geometry">
            <mxPoint y="-9" as="offset" />
          </mxGeometry>
        </mxCell>
        <mxCell id="Xf7Vv05EoHktSYIukm0--261" value="" style="html=1;labelBackgroundColor=#ffffff;startArrow=none;startFill=0;startSize=6;endArrow=classic;endFill=1;endSize=6;jettySize=auto;orthogonalLoop=1;strokeWidth=1;dashed=1;fontSize=14;rounded=0;entryX=0.855;entryY=0.278;entryDx=0;entryDy=0;entryPerimeter=0;exitX=-0.109;exitY=0.752;exitDx=0;exitDy=0;exitPerimeter=0;" parent="Xf7Vv05EoHktSYIukm0--159" edge="1">
          <mxGeometry width="60" height="60" relative="1" as="geometry">
            <mxPoint x="244.99999999999977" y="490.08000000000004" as="sourcePoint" />
            <mxPoint x="54.63999999999987" y="490" as="targetPoint" />
            <Array as="points">
              <mxPoint x="141.08999999999992" y="490" />
            </Array>
          </mxGeometry>
        </mxCell>
        <mxCell id="Xf7Vv05EoHktSYIukm0--262" value="6.4: Response" style="edgeLabel;html=1;align=center;verticalAlign=middle;resizable=0;points=[];" parent="Xf7Vv05EoHktSYIukm0--159" vertex="1" connectable="0">
          <mxGeometry x="148.22000000000003" y="480" as="geometry" />
        </mxCell>
        <mxCell id="Xf7Vv05EoHktSYIukm0--330" value="" style="html=1;labelBackgroundColor=#ffffff;startArrow=none;startFill=0;startSize=6;endArrow=classic;endFill=1;endSize=6;jettySize=auto;orthogonalLoop=1;strokeWidth=1;dashed=1;fontSize=14;rounded=0;exitX=1.1;exitY=0.297;exitDx=0;exitDy=0;exitPerimeter=0;" parent="Xf7Vv05EoHktSYIukm0--159" edge="1">
          <mxGeometry width="60" height="60" relative="1" as="geometry">
            <mxPoint x="-469" y="1330" as="sourcePoint" />
            <mxPoint x="-150" y="1330" as="targetPoint" />
          </mxGeometry>
        </mxCell>
        <mxCell id="Xf7Vv05EoHktSYIukm0--331" value="11: WrongNumber (x)" style="edgeLabel;html=1;align=center;verticalAlign=middle;resizable=0;points=[];" parent="Xf7Vv05EoHktSYIukm0--330" vertex="1" connectable="0">
          <mxGeometry x="-0.0195" y="3" relative="1" as="geometry">
            <mxPoint y="-5" as="offset" />
          </mxGeometry>
        </mxCell>
        <mxCell id="Xf7Vv05EoHktSYIukm0--332" value="" style="endArrow=classic;html=1;rounded=0;" parent="Xf7Vv05EoHktSYIukm0--159" edge="1">
          <mxGeometry width="50" height="50" relative="1" as="geometry">
            <mxPoint x="-142.22000000000003" y="1340" as="sourcePoint" />
            <mxPoint x="46" y="1340" as="targetPoint" />
          </mxGeometry>
        </mxCell>
        <mxCell id="Xf7Vv05EoHktSYIukm0--333" value="11.1: WrongNumber" style="edgeLabel;html=1;align=center;verticalAlign=middle;resizable=0;points=[];" parent="Xf7Vv05EoHktSYIukm0--332" vertex="1" connectable="0">
          <mxGeometry x="0.0036" relative="1" as="geometry">
            <mxPoint y="-9" as="offset" />
          </mxGeometry>
        </mxCell>
        <mxCell id="Xf7Vv05EoHktSYIukm0--338" value="loop" style="shape=umlFrame;whiteSpace=wrap;html=1;pointerEvents=0;width=30;height=20;" parent="Xf7Vv05EoHktSYIukm0--159" vertex="1">
          <mxGeometry x="-530" y="1310" width="890" height="180" as="geometry" />
        </mxCell>
        <mxCell id="Xf7Vv05EoHktSYIukm0--334" value="" style="html=1;labelBackgroundColor=#ffffff;startArrow=none;startFill=0;startSize=6;endArrow=classic;endFill=1;endSize=6;jettySize=auto;orthogonalLoop=1;strokeWidth=1;dashed=1;fontSize=14;rounded=0;entryX=0.855;entryY=0.278;entryDx=0;entryDy=0;entryPerimeter=0;" parent="Xf7Vv05EoHktSYIukm0--159" edge="1">
          <mxGeometry width="60" height="60" relative="1" as="geometry">
            <mxPoint x="45" y="1420" as="sourcePoint" />
            <mxPoint x="-140.95000000000005" y="1420" as="targetPoint" />
          </mxGeometry>
        </mxCell>
        <mxCell id="Xf7Vv05EoHktSYIukm0--335" value="11.5: Response" style="edgeLabel;html=1;align=center;verticalAlign=middle;resizable=0;points=[];" parent="Xf7Vv05EoHktSYIukm0--159" vertex="1" connectable="0">
          <mxGeometry x="-40" y="1400" as="geometry">
            <mxPoint x="-5" y="13" as="offset" />
          </mxGeometry>
        </mxCell>
        <mxCell id="Xf7Vv05EoHktSYIukm0--183" value="Model" style="shape=umlLifeline;perimeter=lifelinePerimeter;whiteSpace=wrap;html=1;container=1;collapsible=0;recursiveResize=0;outlineConnect=0;rounded=1;shadow=0;comic=0;labelBackgroundColor=none;strokeWidth=1;fontFamily=Verdana;fontSize=12;align=center;fillColor=#e1d5e7;strokeColor=#9673a6;" parent="1" vertex="1">
          <mxGeometry x="1910" y="80" width="100" height="1440" as="geometry" />
        </mxCell>
        <mxCell id="Xf7Vv05EoHktSYIukm0--263" value="" style="html=1;points=[];perimeter=orthogonalPerimeter;rounded=0;shadow=0;comic=0;labelBackgroundColor=none;strokeWidth=1;fontFamily=Verdana;fontSize=12;align=center;" parent="Xf7Vv05EoHktSYIukm0--183" vertex="1">
          <mxGeometry x="45" y="141" width="10" height="29" as="geometry" />
        </mxCell>
        <mxCell id="Xf7Vv05EoHktSYIukm0--265" value="" style="html=1;points=[];perimeter=orthogonalPerimeter;rounded=0;shadow=0;comic=0;labelBackgroundColor=none;strokeWidth=1;fontFamily=Verdana;fontSize=12;align=center;" parent="Xf7Vv05EoHktSYIukm0--183" vertex="1">
          <mxGeometry x="45" y="240" width="10" height="80" as="geometry" />
        </mxCell>
        <mxCell id="Xf7Vv05EoHktSYIukm0--266" value="" style="html=1;points=[];perimeter=orthogonalPerimeter;rounded=0;shadow=0;comic=0;labelBackgroundColor=none;strokeWidth=1;fontFamily=Verdana;fontSize=12;align=center;" parent="Xf7Vv05EoHktSYIukm0--183" vertex="1">
          <mxGeometry x="45" y="430" width="10" height="80" as="geometry" />
        </mxCell>
        <mxCell id="Xf7Vv05EoHktSYIukm0--279" value="" style="html=1;points=[];perimeter=orthogonalPerimeter;rounded=0;shadow=0;comic=0;labelBackgroundColor=none;strokeWidth=1;fontFamily=Verdana;fontSize=12;align=center;" parent="Xf7Vv05EoHktSYIukm0--183" vertex="1">
          <mxGeometry x="-155" y="630" width="10" height="100" as="geometry" />
        </mxCell>
        <mxCell id="Xf7Vv05EoHktSYIukm0--280" value="" style="endArrow=classic;html=1;rounded=0;exitX=1.044;exitY=0.231;exitDx=0;exitDy=0;exitPerimeter=0;entryX=0.014;entryY=0.558;entryDx=0;entryDy=0;entryPerimeter=0;" parent="Xf7Vv05EoHktSYIukm0--183" edge="1">
          <mxGeometry width="50" height="50" relative="1" as="geometry">
            <mxPoint x="-144" y="668.95" as="sourcePoint" />
            <mxPoint x="45" y="668" as="targetPoint" />
          </mxGeometry>
        </mxCell>
        <mxCell id="Xf7Vv05EoHktSYIukm0--281" value="7.3: UpdateLogs" style="edgeLabel;html=1;align=center;verticalAlign=middle;resizable=0;points=[];" parent="Xf7Vv05EoHktSYIukm0--280" vertex="1" connectable="0">
          <mxGeometry x="0.0036" relative="1" as="geometry">
            <mxPoint y="-9" as="offset" />
          </mxGeometry>
        </mxCell>
        <mxCell id="Xf7Vv05EoHktSYIukm0--282" value="" style="endArrow=classic;html=1;rounded=0;exitX=0.838;exitY=0.15;exitDx=0;exitDy=0;exitPerimeter=0;" parent="Xf7Vv05EoHktSYIukm0--183" source="Xf7Vv05EoHktSYIukm0--279" edge="1">
          <mxGeometry width="50" height="50" relative="1" as="geometry">
            <mxPoint x="-149.05999999999995" y="644.47" as="sourcePoint" />
            <mxPoint x="45" y="644.47" as="targetPoint" />
          </mxGeometry>
        </mxCell>
        <mxCell id="Xf7Vv05EoHktSYIukm0--283" value="7.2: RecoverBackup" style="edgeLabel;html=1;align=center;verticalAlign=middle;resizable=0;points=[];" parent="Xf7Vv05EoHktSYIukm0--282" vertex="1" connectable="0">
          <mxGeometry x="0.0036" relative="1" as="geometry">
            <mxPoint y="-9" as="offset" />
          </mxGeometry>
        </mxCell>
        <mxCell id="Xf7Vv05EoHktSYIukm0--284" value="" style="html=1;labelBackgroundColor=#ffffff;startArrow=none;startFill=0;startSize=6;endArrow=classic;endFill=1;endSize=6;jettySize=auto;orthogonalLoop=1;strokeWidth=1;dashed=1;fontSize=14;rounded=0;entryX=0.855;entryY=0.278;entryDx=0;entryDy=0;entryPerimeter=0;exitX=-0.109;exitY=0.752;exitDx=0;exitDy=0;exitPerimeter=0;" parent="Xf7Vv05EoHktSYIukm0--183" edge="1">
          <mxGeometry width="60" height="60" relative="1" as="geometry">
            <mxPoint x="44.99999999999977" y="700.08" as="sourcePoint" />
            <mxPoint x="-145.36000000000013" y="700" as="targetPoint" />
            <Array as="points">
              <mxPoint x="-58.91000000000008" y="700" />
            </Array>
          </mxGeometry>
        </mxCell>
        <mxCell id="Xf7Vv05EoHktSYIukm0--285" value="7.4: Response" style="edgeLabel;html=1;align=center;verticalAlign=middle;resizable=0;points=[];" parent="Xf7Vv05EoHktSYIukm0--183" vertex="1" connectable="0">
          <mxGeometry x="-51.77999999999997" y="690" as="geometry" />
        </mxCell>
        <mxCell id="Xf7Vv05EoHktSYIukm0--286" value="" style="html=1;points=[];perimeter=orthogonalPerimeter;rounded=0;shadow=0;comic=0;labelBackgroundColor=none;strokeWidth=1;fontFamily=Verdana;fontSize=12;align=center;" parent="Xf7Vv05EoHktSYIukm0--183" vertex="1">
          <mxGeometry x="45" y="640" width="10" height="80" as="geometry" />
        </mxCell>
        <mxCell id="Xf7Vv05EoHktSYIukm0--287" value="" style="endArrow=classic;html=1;rounded=0;" parent="Xf7Vv05EoHktSYIukm0--183" edge="1">
          <mxGeometry width="50" height="50" relative="1" as="geometry">
            <mxPoint x="-343.1100000000001" y="631.56" as="sourcePoint" />
            <mxPoint x="-154.88999999999987" y="631.56" as="targetPoint" />
          </mxGeometry>
        </mxCell>
        <mxCell id="Xf7Vv05EoHktSYIukm0--288" value="7.1: RecoverBackup" style="edgeLabel;html=1;align=center;verticalAlign=middle;resizable=0;points=[];" parent="Xf7Vv05EoHktSYIukm0--287" vertex="1" connectable="0">
          <mxGeometry x="0.0036" relative="1" as="geometry">
            <mxPoint y="-9" as="offset" />
          </mxGeometry>
        </mxCell>
        <mxCell id="Xf7Vv05EoHktSYIukm0--289" value="" style="html=1;labelBackgroundColor=#ffffff;startArrow=none;startFill=0;startSize=6;endArrow=classic;endFill=1;endSize=6;jettySize=auto;orthogonalLoop=1;strokeWidth=1;dashed=1;fontSize=14;rounded=0;entryX=0.855;entryY=0.278;entryDx=0;entryDy=0;entryPerimeter=0;" parent="Xf7Vv05EoHktSYIukm0--183" edge="1">
          <mxGeometry width="60" height="60" relative="1" as="geometry">
            <mxPoint x="-157.79999999999995" y="719" as="sourcePoint" />
            <mxPoint x="-343.75" y="719" as="targetPoint" />
          </mxGeometry>
        </mxCell>
        <mxCell id="Xf7Vv05EoHktSYIukm0--290" value="7.5: Response" style="edgeLabel;html=1;align=center;verticalAlign=middle;resizable=0;points=[];" parent="Xf7Vv05EoHktSYIukm0--183" vertex="1" connectable="0">
          <mxGeometry x="-247.29999999999995" y="709" as="geometry">
            <mxPoint x="-4" as="offset" />
          </mxGeometry>
        </mxCell>
        <mxCell id="Xf7Vv05EoHktSYIukm0--339" value="" style="html=1;points=[];perimeter=orthogonalPerimeter;rounded=0;shadow=0;comic=0;labelBackgroundColor=none;strokeWidth=1;fontFamily=Verdana;fontSize=12;align=center;" parent="Xf7Vv05EoHktSYIukm0--183" vertex="1">
          <mxGeometry x="-154.99999999999997" y="1340" width="10" height="100" as="geometry" />
        </mxCell>
        <mxCell id="Xf7Vv05EoHktSYIukm0--340" value="" style="endArrow=classic;html=1;rounded=0;exitX=1.044;exitY=0.231;exitDx=0;exitDy=0;exitPerimeter=0;entryX=0.014;entryY=0.558;entryDx=0;entryDy=0;entryPerimeter=0;" parent="Xf7Vv05EoHktSYIukm0--183" edge="1">
          <mxGeometry width="50" height="50" relative="1" as="geometry">
            <mxPoint x="-143.99999999999997" y="1378.95" as="sourcePoint" />
            <mxPoint x="45.00000000000003" y="1378" as="targetPoint" />
          </mxGeometry>
        </mxCell>
        <mxCell id="Xf7Vv05EoHktSYIukm0--341" value="11.3: UpdateLogs" style="edgeLabel;html=1;align=center;verticalAlign=middle;resizable=0;points=[];" parent="Xf7Vv05EoHktSYIukm0--340" vertex="1" connectable="0">
          <mxGeometry x="0.0036" relative="1" as="geometry">
            <mxPoint y="-9" as="offset" />
          </mxGeometry>
        </mxCell>
        <mxCell id="Xf7Vv05EoHktSYIukm0--342" value="" style="endArrow=classic;html=1;rounded=0;exitX=0.838;exitY=0.15;exitDx=0;exitDy=0;exitPerimeter=0;" parent="Xf7Vv05EoHktSYIukm0--183" source="Xf7Vv05EoHktSYIukm0--339" edge="1">
          <mxGeometry width="50" height="50" relative="1" as="geometry">
            <mxPoint x="-149.05999999999992" y="1354.47" as="sourcePoint" />
            <mxPoint x="45.00000000000003" y="1354.47" as="targetPoint" />
          </mxGeometry>
        </mxCell>
        <mxCell id="Xf7Vv05EoHktSYIukm0--343" value="11.2: WrongNumber" style="edgeLabel;html=1;align=center;verticalAlign=middle;resizable=0;points=[];" parent="Xf7Vv05EoHktSYIukm0--342" vertex="1" connectable="0">
          <mxGeometry x="0.0036" relative="1" as="geometry">
            <mxPoint y="-9" as="offset" />
          </mxGeometry>
        </mxCell>
        <mxCell id="Xf7Vv05EoHktSYIukm0--344" value="" style="html=1;labelBackgroundColor=#ffffff;startArrow=none;startFill=0;startSize=6;endArrow=classic;endFill=1;endSize=6;jettySize=auto;orthogonalLoop=1;strokeWidth=1;dashed=1;fontSize=14;rounded=0;entryX=0.855;entryY=0.278;entryDx=0;entryDy=0;entryPerimeter=0;exitX=-0.109;exitY=0.752;exitDx=0;exitDy=0;exitPerimeter=0;" parent="Xf7Vv05EoHktSYIukm0--183" edge="1">
          <mxGeometry width="60" height="60" relative="1" as="geometry">
            <mxPoint x="44.9999999999998" y="1410.08" as="sourcePoint" />
            <mxPoint x="-145.3600000000001" y="1410" as="targetPoint" />
            <Array as="points">
              <mxPoint x="-58.91000000000005" y="1410" />
            </Array>
          </mxGeometry>
        </mxCell>
        <mxCell id="Xf7Vv05EoHktSYIukm0--345" value="11.4: Response" style="edgeLabel;html=1;align=center;verticalAlign=middle;resizable=0;points=[];" parent="Xf7Vv05EoHktSYIukm0--183" vertex="1" connectable="0">
          <mxGeometry x="-51.779999999999944" y="1400" as="geometry" />
        </mxCell>
        <mxCell id="Xf7Vv05EoHktSYIukm0--346" value="" style="html=1;points=[];perimeter=orthogonalPerimeter;rounded=0;shadow=0;comic=0;labelBackgroundColor=none;strokeWidth=1;fontFamily=Verdana;fontSize=12;align=center;" parent="Xf7Vv05EoHktSYIukm0--183" vertex="1">
          <mxGeometry x="45.00000000000003" y="1350" width="10" height="80" as="geometry" />
        </mxCell>
        <mxCell id="Xf7Vv05EoHktSYIukm0--186" value="Main" style="shape=umlLifeline;perimeter=lifelinePerimeter;whiteSpace=wrap;html=1;container=1;collapsible=0;recursiveResize=0;outlineConnect=0;rounded=1;shadow=0;comic=0;labelBackgroundColor=none;strokeWidth=1;fontFamily=Verdana;fontSize=12;align=center;fillColor=#dae8fc;strokeColor=#6c8ebf;" parent="1" vertex="1">
          <mxGeometry x="1310" y="80" width="100" height="970" as="geometry" />
        </mxCell>
        <mxCell id="Xf7Vv05EoHktSYIukm0--187" value="" style="html=1;points=[];perimeter=orthogonalPerimeter;rounded=0;shadow=0;comic=0;labelBackgroundColor=none;strokeWidth=1;fontFamily=Verdana;fontSize=12;align=center;" parent="Xf7Vv05EoHktSYIukm0--186" vertex="1">
          <mxGeometry x="45" y="90" width="10" height="20" as="geometry" />
        </mxCell>
        <mxCell id="Xf7Vv05EoHktSYIukm0--216" value="" style="html=1;labelBackgroundColor=#ffffff;startArrow=none;startFill=0;startSize=6;endArrow=classic;endFill=1;endSize=6;jettySize=auto;orthogonalLoop=1;strokeWidth=1;dashed=1;fontSize=14;rounded=0;exitX=1.1;exitY=0.297;exitDx=0;exitDy=0;exitPerimeter=0;" parent="Xf7Vv05EoHktSYIukm0--186" target="Xf7Vv05EoHktSYIukm0--158" edge="1">
          <mxGeometry width="60" height="60" relative="1" as="geometry">
            <mxPoint x="-69" y="410.56" as="sourcePoint" />
            <mxPoint x="240" y="411" as="targetPoint" />
          </mxGeometry>
        </mxCell>
        <mxCell id="Xf7Vv05EoHktSYIukm0--217" value="6: ExecuteBackup (4)" style="edgeLabel;html=1;align=center;verticalAlign=middle;resizable=0;points=[];" parent="Xf7Vv05EoHktSYIukm0--216" vertex="1" connectable="0">
          <mxGeometry x="-0.0195" y="3" relative="1" as="geometry">
            <mxPoint y="-5" as="offset" />
          </mxGeometry>
        </mxCell>
        <mxCell id="Xf7Vv05EoHktSYIukm0--218" value="" style="endArrow=classic;html=1;rounded=0;" parent="Xf7Vv05EoHktSYIukm0--186" edge="1">
          <mxGeometry width="50" height="50" relative="1" as="geometry">
            <mxPoint x="256.8899999999999" y="421.56" as="sourcePoint" />
            <mxPoint x="445.1100000000001" y="421.56" as="targetPoint" />
          </mxGeometry>
        </mxCell>
        <mxCell id="Xf7Vv05EoHktSYIukm0--219" value="6.1: ExecuteBackup" style="edgeLabel;html=1;align=center;verticalAlign=middle;resizable=0;points=[];" parent="Xf7Vv05EoHktSYIukm0--218" vertex="1" connectable="0">
          <mxGeometry x="0.0036" relative="1" as="geometry">
            <mxPoint y="-9" as="offset" />
          </mxGeometry>
        </mxCell>
        <mxCell id="Xf7Vv05EoHktSYIukm0--213" value="" style="html=1;labelBackgroundColor=#ffffff;startArrow=none;startFill=0;startSize=6;endArrow=classic;endFill=1;endSize=6;jettySize=auto;orthogonalLoop=1;strokeWidth=1;dashed=1;fontSize=14;rounded=0;entryX=0.855;entryY=0.278;entryDx=0;entryDy=0;entryPerimeter=0;exitX=-0.109;exitY=0.752;exitDx=0;exitDy=0;exitPerimeter=0;" parent="Xf7Vv05EoHktSYIukm0--186" edge="1">
          <mxGeometry width="60" height="60" relative="1" as="geometry">
            <mxPoint x="445.9999999999998" y="320.08000000000004" as="sourcePoint" />
            <mxPoint x="255.63999999999987" y="319.99999999999994" as="targetPoint" />
            <Array as="points">
              <mxPoint x="342.0899999999999" y="320" />
            </Array>
          </mxGeometry>
        </mxCell>
        <mxCell id="Xf7Vv05EoHktSYIukm0--214" value="5.5: Response" style="edgeLabel;html=1;align=center;verticalAlign=middle;resizable=0;points=[];" parent="Xf7Vv05EoHktSYIukm0--186" vertex="1" connectable="0">
          <mxGeometry x="349.22" y="310" as="geometry" />
        </mxCell>
        <mxCell id="Xf7Vv05EoHktSYIukm0--243" value="" style="endArrow=classic;html=1;rounded=0;entryX=1.241;entryY=0.418;entryDx=0;entryDy=0;entryPerimeter=0;exitX=-0.04;exitY=0.07;exitDx=0;exitDy=0;exitPerimeter=0;" parent="Xf7Vv05EoHktSYIukm0--186" edge="1">
          <mxGeometry width="50" height="50" relative="1" as="geometry">
            <mxPoint x="245.60000000000014" y="340.1" as="sourcePoint" />
            <mxPoint x="-69" y="340" as="targetPoint" />
          </mxGeometry>
        </mxCell>
        <mxCell id="Xf7Vv05EoHktSYIukm0--244" value="5.6: AskNumber" style="edgeLabel;html=1;align=center;verticalAlign=middle;resizable=0;points=[];" parent="Xf7Vv05EoHktSYIukm0--243" vertex="1" connectable="0">
          <mxGeometry x="0.0124" y="-1" relative="1" as="geometry">
            <mxPoint y="-9" as="offset" />
          </mxGeometry>
        </mxCell>
        <mxCell id="Xf7Vv05EoHktSYIukm0--199" value="Actor" style="shape=umlActor;verticalLabelPosition=bottom;verticalAlign=top;html=1;outlineConnect=0;" parent="1" vertex="1">
          <mxGeometry x="1220" y="60" width="30" height="60" as="geometry" />
        </mxCell>
        <mxCell id="Xf7Vv05EoHktSYIukm0--200" value="&lt;span style=&quot;font-family: Helvetica; font-size: 11px; background-color: rgb(255, 255, 255);&quot;&gt;3: Initialize&lt;/span&gt;" style="html=1;verticalAlign=bottom;endArrow=block;entryX=0;entryY=0;labelBackgroundColor=none;fontFamily=Verdana;fontSize=12;edgeStyle=elbowEdgeStyle;elbow=vertical;rounded=0;" parent="1" source="Xf7Vv05EoHktSYIukm0--263" edge="1">
          <mxGeometry x="-1" y="-104" relative="1" as="geometry">
            <mxPoint x="1960" y="220" as="sourcePoint" />
            <mxPoint x="1960" y="250.14" as="targetPoint" />
            <mxPoint x="-204" y="-31" as="offset" />
          </mxGeometry>
        </mxCell>
        <mxCell id="Xf7Vv05EoHktSYIukm0--201" value="" style="html=1;points=[];perimeter=orthogonalPerimeter;rounded=0;shadow=0;comic=0;labelBackgroundColor=none;strokeWidth=1;fontFamily=Verdana;fontSize=12;align=center;" parent="1" vertex="1">
          <mxGeometry x="1230" y="140" width="10" height="1380" as="geometry" />
        </mxCell>
        <mxCell id="Xf7Vv05EoHktSYIukm0--202" value="" style="endArrow=classic;html=1;rounded=0;" parent="1" edge="1">
          <mxGeometry width="50" height="50" relative="1" as="geometry">
            <mxPoint x="1754.5000000000002" y="210" as="sourcePoint" />
            <mxPoint x="1565" y="210" as="targetPoint" />
          </mxGeometry>
        </mxCell>
        <mxCell id="Xf7Vv05EoHktSYIukm0--203" value="Text" style="edgeLabel;html=1;align=center;verticalAlign=middle;resizable=0;points=[];" parent="Xf7Vv05EoHktSYIukm0--202" vertex="1" connectable="0">
          <mxGeometry x="0.0783" y="-9" relative="1" as="geometry">
            <mxPoint x="-1" as="offset" />
          </mxGeometry>
        </mxCell>
        <mxCell id="Xf7Vv05EoHktSYIukm0--204" value="2: Initialize" style="edgeLabel;html=1;align=center;verticalAlign=middle;resizable=0;points=[];" parent="Xf7Vv05EoHktSYIukm0--202" vertex="1" connectable="0">
          <mxGeometry x="0.0783" y="-9" relative="1" as="geometry">
            <mxPoint x="-1" as="offset" />
          </mxGeometry>
        </mxCell>
        <mxCell id="Xf7Vv05EoHktSYIukm0--206" value="" style="endArrow=classic;html=1;rounded=0;entryX=1.241;entryY=0.418;entryDx=0;entryDy=0;entryPerimeter=0;exitX=-0.04;exitY=0.07;exitDx=0;exitDy=0;exitPerimeter=0;" parent="1" edge="1">
          <mxGeometry width="50" height="50" relative="1" as="geometry">
            <mxPoint x="1554.6000000000001" y="250.10000000000002" as="sourcePoint" />
            <mxPoint x="1240" y="250" as="targetPoint" />
          </mxGeometry>
        </mxCell>
        <mxCell id="Xf7Vv05EoHktSYIukm0--207" value="4: AskNumber" style="edgeLabel;html=1;align=center;verticalAlign=middle;resizable=0;points=[];" parent="Xf7Vv05EoHktSYIukm0--206" vertex="1" connectable="0">
          <mxGeometry x="0.0124" y="-1" relative="1" as="geometry">
            <mxPoint y="-9" as="offset" />
          </mxGeometry>
        </mxCell>
        <mxCell id="Xf7Vv05EoHktSYIukm0--208" value="" style="html=1;labelBackgroundColor=#ffffff;startArrow=none;startFill=0;startSize=6;endArrow=classic;endFill=1;endSize=6;jettySize=auto;orthogonalLoop=1;strokeWidth=1;dashed=1;fontSize=14;rounded=0;exitX=1.1;exitY=0.297;exitDx=0;exitDy=0;exitPerimeter=0;" parent="1" edge="1">
          <mxGeometry width="60" height="60" relative="1" as="geometry">
            <mxPoint x="1240" y="300" as="sourcePoint" />
            <mxPoint x="1558.5" y="300" as="targetPoint" />
          </mxGeometry>
        </mxCell>
        <mxCell id="Xf7Vv05EoHktSYIukm0--209" value="5: AskAddBackup (1)" style="edgeLabel;html=1;align=center;verticalAlign=middle;resizable=0;points=[];" parent="Xf7Vv05EoHktSYIukm0--208" vertex="1" connectable="0">
          <mxGeometry x="-0.0195" y="3" relative="1" as="geometry">
            <mxPoint y="-5" as="offset" />
          </mxGeometry>
        </mxCell>
        <mxCell id="Xf7Vv05EoHktSYIukm0--211" value="" style="endArrow=classic;html=1;rounded=0;exitX=1.044;exitY=0.231;exitDx=0;exitDy=0;exitPerimeter=0;" parent="1" edge="1">
          <mxGeometry width="50" height="50" relative="1" as="geometry">
            <mxPoint x="1561.19" y="310" as="sourcePoint" />
            <mxPoint x="1755.25" y="310" as="targetPoint" />
          </mxGeometry>
        </mxCell>
        <mxCell id="Xf7Vv05EoHktSYIukm0--212" value="5.1: AddBackup" style="edgeLabel;html=1;align=center;verticalAlign=middle;resizable=0;points=[];" parent="Xf7Vv05EoHktSYIukm0--211" vertex="1" connectable="0">
          <mxGeometry x="0.0036" relative="1" as="geometry">
            <mxPoint y="-9" as="offset" />
          </mxGeometry>
        </mxCell>
        <mxCell id="Xf7Vv05EoHktSYIukm0--178" value="" style="html=1;labelBackgroundColor=#ffffff;startArrow=none;startFill=0;startSize=6;endArrow=classic;endFill=1;endSize=6;jettySize=auto;orthogonalLoop=1;strokeWidth=1;dashed=1;fontSize=14;rounded=0;exitX=1.1;exitY=0.297;exitDx=0;exitDy=0;exitPerimeter=0;" parent="1" edge="1">
          <mxGeometry width="60" height="60" relative="1" as="geometry">
            <mxPoint x="1240" y="1230" as="sourcePoint" />
            <mxPoint x="1559" y="1230" as="targetPoint" />
          </mxGeometry>
        </mxCell>
        <mxCell id="Xf7Vv05EoHktSYIukm0--179" value="10: AskForExit (6)" style="edgeLabel;html=1;align=center;verticalAlign=middle;resizable=0;points=[];" parent="Xf7Vv05EoHktSYIukm0--178" vertex="1" connectable="0">
          <mxGeometry x="-0.0195" y="3" relative="1" as="geometry">
            <mxPoint y="-5" as="offset" />
          </mxGeometry>
        </mxCell>
        <mxCell id="Xf7Vv05EoHktSYIukm0--192" value="" style="endArrow=classic;html=1;rounded=0;entryX=1.241;entryY=0.418;entryDx=0;entryDy=0;entryPerimeter=0;exitX=-0.04;exitY=0.07;exitDx=0;exitDy=0;exitPerimeter=0;" parent="1" edge="1">
          <mxGeometry width="50" height="50" relative="1" as="geometry">
            <mxPoint x="1554.6000000000001" y="1190.1" as="sourcePoint" />
            <mxPoint x="1240" y="1190" as="targetPoint" />
          </mxGeometry>
        </mxCell>
        <mxCell id="Xf7Vv05EoHktSYIukm0--193" value="9.6: AskNumber" style="edgeLabel;html=1;align=center;verticalAlign=middle;resizable=0;points=[];" parent="Xf7Vv05EoHktSYIukm0--192" vertex="1" connectable="0">
          <mxGeometry x="0.0124" y="-1" relative="1" as="geometry">
            <mxPoint y="-9" as="offset" />
          </mxGeometry>
        </mxCell>
        <mxCell id="Xf7Vv05EoHktSYIukm0--234" value="" style="html=1;labelBackgroundColor=#ffffff;startArrow=none;startFill=0;startSize=6;endArrow=classic;endFill=1;endSize=6;jettySize=auto;orthogonalLoop=1;strokeWidth=1;dashed=1;fontSize=14;rounded=0;exitX=1.1;exitY=0.297;exitDx=0;exitDy=0;exitPerimeter=0;" parent="1" edge="1">
          <mxGeometry width="60" height="60" relative="1" as="geometry">
            <mxPoint x="1241" y="1070" as="sourcePoint" />
            <mxPoint x="1560" y="1070" as="targetPoint" />
          </mxGeometry>
        </mxCell>
        <mxCell id="Xf7Vv05EoHktSYIukm0--235" value="9: AskForLogs (5)" style="edgeLabel;html=1;align=center;verticalAlign=middle;resizable=0;points=[];" parent="Xf7Vv05EoHktSYIukm0--234" vertex="1" connectable="0">
          <mxGeometry x="-0.0195" y="3" relative="1" as="geometry">
            <mxPoint y="-5" as="offset" />
          </mxGeometry>
        </mxCell>
        <mxCell id="Xf7Vv05EoHktSYIukm0--190" value="" style="endArrow=classic;html=1;rounded=0;entryX=1.241;entryY=0.418;entryDx=0;entryDy=0;entryPerimeter=0;exitX=-0.04;exitY=0.07;exitDx=0;exitDy=0;exitPerimeter=0;" parent="1" edge="1">
          <mxGeometry width="50" height="50" relative="1" as="geometry">
            <mxPoint x="1554.6000000000001" y="1028.99" as="sourcePoint" />
            <mxPoint x="1240" y="1028.89" as="targetPoint" />
          </mxGeometry>
        </mxCell>
        <mxCell id="Xf7Vv05EoHktSYIukm0--191" value="8.6: AskNumber" style="edgeLabel;html=1;align=center;verticalAlign=middle;resizable=0;points=[];" parent="Xf7Vv05EoHktSYIukm0--190" vertex="1" connectable="0">
          <mxGeometry x="0.0124" y="-1" relative="1" as="geometry">
            <mxPoint y="-9" as="offset" />
          </mxGeometry>
        </mxCell>
        <mxCell id="Xf7Vv05EoHktSYIukm0--225" value="8.5: Response" style="edgeLabel;html=1;align=center;verticalAlign=middle;resizable=0;points=[];" parent="1" vertex="1" connectable="0">
          <mxGeometry x="1662.7" y="990" as="geometry" />
        </mxCell>
        <mxCell id="Xf7Vv05EoHktSYIukm0--226" value="" style="html=1;labelBackgroundColor=#ffffff;startArrow=none;startFill=0;startSize=6;endArrow=classic;endFill=1;endSize=6;jettySize=auto;orthogonalLoop=1;strokeWidth=1;dashed=1;fontSize=14;rounded=0;exitX=1.1;exitY=0.297;exitDx=0;exitDy=0;exitPerimeter=0;" parent="1" edge="1">
          <mxGeometry width="60" height="60" relative="1" as="geometry">
            <mxPoint x="1240" y="900" as="sourcePoint" />
            <mxPoint x="1559" y="900" as="targetPoint" />
          </mxGeometry>
        </mxCell>
        <mxCell id="Xf7Vv05EoHktSYIukm0--227" value="8: AskChoiceLanguage (4)" style="edgeLabel;html=1;align=center;verticalAlign=middle;resizable=0;points=[];" parent="Xf7Vv05EoHktSYIukm0--226" vertex="1" connectable="0">
          <mxGeometry x="-0.0195" y="3" relative="1" as="geometry">
            <mxPoint y="-5" as="offset" />
          </mxGeometry>
        </mxCell>
        <mxCell id="Xf7Vv05EoHktSYIukm0--228" value="" style="endArrow=classic;html=1;rounded=0;" parent="1" edge="1">
          <mxGeometry width="50" height="50" relative="1" as="geometry">
            <mxPoint x="1565.8899999999999" y="911" as="sourcePoint" />
            <mxPoint x="1754.1100000000001" y="911" as="targetPoint" />
          </mxGeometry>
        </mxCell>
        <mxCell id="Xf7Vv05EoHktSYIukm0--229" value="8.1: ChoiceLanguage" style="edgeLabel;html=1;align=center;verticalAlign=middle;resizable=0;points=[];" parent="Xf7Vv05EoHktSYIukm0--228" vertex="1" connectable="0">
          <mxGeometry x="0.0036" relative="1" as="geometry">
            <mxPoint y="-9" as="offset" />
          </mxGeometry>
        </mxCell>
        <mxCell id="Xf7Vv05EoHktSYIukm0--251" value="" style="endArrow=classic;html=1;rounded=0;exitX=0.838;exitY=0.15;exitDx=0;exitDy=0;exitPerimeter=0;" parent="1" source="Xf7Vv05EoHktSYIukm0--163" edge="1">
          <mxGeometry width="50" height="50" relative="1" as="geometry">
            <mxPoint x="1760.94" y="324.47" as="sourcePoint" />
            <mxPoint x="1955" y="324.47" as="targetPoint" />
          </mxGeometry>
        </mxCell>
        <mxCell id="Xf7Vv05EoHktSYIukm0--252" value="5.2: AddBackup" style="edgeLabel;html=1;align=center;verticalAlign=middle;resizable=0;points=[];" parent="Xf7Vv05EoHktSYIukm0--251" vertex="1" connectable="0">
          <mxGeometry x="0.0036" relative="1" as="geometry">
            <mxPoint y="-9" as="offset" />
          </mxGeometry>
        </mxCell>
        <mxCell id="Xf7Vv05EoHktSYIukm0--253" value="" style="html=1;labelBackgroundColor=#ffffff;startArrow=none;startFill=0;startSize=6;endArrow=classic;endFill=1;endSize=6;jettySize=auto;orthogonalLoop=1;strokeWidth=1;dashed=1;fontSize=14;rounded=0;entryX=0.855;entryY=0.278;entryDx=0;entryDy=0;entryPerimeter=0;exitX=-0.109;exitY=0.752;exitDx=0;exitDy=0;exitPerimeter=0;" parent="1" edge="1">
          <mxGeometry width="60" height="60" relative="1" as="geometry">
            <mxPoint x="1954.9999999999998" y="380.08000000000004" as="sourcePoint" />
            <mxPoint x="1764.6399999999999" y="379.99999999999994" as="targetPoint" />
            <Array as="points">
              <mxPoint x="1851.09" y="380" />
            </Array>
          </mxGeometry>
        </mxCell>
        <mxCell id="Xf7Vv05EoHktSYIukm0--254" value="5.4: Response" style="edgeLabel;html=1;align=center;verticalAlign=middle;resizable=0;points=[];" parent="1" vertex="1" connectable="0">
          <mxGeometry x="1858.22" y="370" as="geometry" />
        </mxCell>
        <mxCell id="Xf7Vv05EoHktSYIukm0--165" value="" style="html=1;labelBackgroundColor=#ffffff;startArrow=none;startFill=0;startSize=6;endArrow=classic;endFill=1;endSize=6;jettySize=auto;orthogonalLoop=1;strokeWidth=1;dashed=1;fontSize=14;rounded=0;entryX=0.855;entryY=0.278;entryDx=0;entryDy=0;entryPerimeter=0;" parent="1" edge="1">
          <mxGeometry width="60" height="60" relative="1" as="geometry">
            <mxPoint x="1752.2" y="589" as="sourcePoint" />
            <mxPoint x="1566.25" y="589" as="targetPoint" />
          </mxGeometry>
        </mxCell>
        <mxCell id="Xf7Vv05EoHktSYIukm0--166" value="6.5: Response" style="edgeLabel;html=1;align=center;verticalAlign=middle;resizable=0;points=[];" parent="1" vertex="1" connectable="0">
          <mxGeometry x="1662.7" y="579" as="geometry">
            <mxPoint x="-4" as="offset" />
          </mxGeometry>
        </mxCell>
        <mxCell id="Xf7Vv05EoHktSYIukm0--245" value="" style="endArrow=classic;html=1;rounded=0;entryX=1.241;entryY=0.418;entryDx=0;entryDy=0;entryPerimeter=0;exitX=-0.04;exitY=0.07;exitDx=0;exitDy=0;exitPerimeter=0;" parent="1" edge="1">
          <mxGeometry width="50" height="50" relative="1" as="geometry">
            <mxPoint x="1556" y="620.1000000000001" as="sourcePoint" />
            <mxPoint x="1241.4" y="620" as="targetPoint" />
          </mxGeometry>
        </mxCell>
        <mxCell id="Xf7Vv05EoHktSYIukm0--246" value="6.6: AskNumber" style="edgeLabel;html=1;align=center;verticalAlign=middle;resizable=0;points=[];" parent="Xf7Vv05EoHktSYIukm0--245" vertex="1" connectable="0">
          <mxGeometry x="0.0124" y="-1" relative="1" as="geometry">
            <mxPoint y="-9" as="offset" />
          </mxGeometry>
        </mxCell>
        <mxCell id="Xf7Vv05EoHktSYIukm0--188" value="" style="endArrow=classic;html=1;rounded=0;entryX=1.241;entryY=0.418;entryDx=0;entryDy=0;entryPerimeter=0;exitX=-0.04;exitY=0.07;exitDx=0;exitDy=0;exitPerimeter=0;" parent="1" edge="1">
          <mxGeometry width="50" height="50" relative="1" as="geometry">
            <mxPoint x="1555.6000000000001" y="840.1" as="sourcePoint" />
            <mxPoint x="1241" y="840" as="targetPoint" />
          </mxGeometry>
        </mxCell>
        <mxCell id="Xf7Vv05EoHktSYIukm0--189" value="7.6: AskNumber" style="edgeLabel;html=1;align=center;verticalAlign=middle;resizable=0;points=[];" parent="Xf7Vv05EoHktSYIukm0--188" vertex="1" connectable="0">
          <mxGeometry x="0.0124" y="-1" relative="1" as="geometry">
            <mxPoint y="-9" as="offset" />
          </mxGeometry>
        </mxCell>
        <mxCell id="Xf7Vv05EoHktSYIukm0--292" value="" style="html=1;points=[];perimeter=orthogonalPerimeter;rounded=0;shadow=0;comic=0;labelBackgroundColor=none;strokeWidth=1;fontFamily=Verdana;fontSize=12;align=center;" parent="1" vertex="1">
          <mxGeometry x="1756" y="900" width="10" height="100" as="geometry" />
        </mxCell>
        <mxCell id="Xf7Vv05EoHktSYIukm0--293" value="" style="endArrow=classic;html=1;rounded=0;exitX=1.044;exitY=0.231;exitDx=0;exitDy=0;exitPerimeter=0;entryX=0.014;entryY=0.558;entryDx=0;entryDy=0;entryPerimeter=0;" parent="1" edge="1">
          <mxGeometry width="50" height="50" relative="1" as="geometry">
            <mxPoint x="1767" y="938.95" as="sourcePoint" />
            <mxPoint x="1956" y="938" as="targetPoint" />
          </mxGeometry>
        </mxCell>
        <mxCell id="Xf7Vv05EoHktSYIukm0--294" value="8.3: UpdateLogs" style="edgeLabel;html=1;align=center;verticalAlign=middle;resizable=0;points=[];" parent="Xf7Vv05EoHktSYIukm0--293" vertex="1" connectable="0">
          <mxGeometry x="0.0036" relative="1" as="geometry">
            <mxPoint y="-9" as="offset" />
          </mxGeometry>
        </mxCell>
        <mxCell id="Xf7Vv05EoHktSYIukm0--295" value="" style="endArrow=classic;html=1;rounded=0;exitX=0.838;exitY=0.15;exitDx=0;exitDy=0;exitPerimeter=0;" parent="1" source="Xf7Vv05EoHktSYIukm0--292" edge="1">
          <mxGeometry width="50" height="50" relative="1" as="geometry">
            <mxPoint x="1761.94" y="914.47" as="sourcePoint" />
            <mxPoint x="1956" y="914.47" as="targetPoint" />
          </mxGeometry>
        </mxCell>
        <mxCell id="Xf7Vv05EoHktSYIukm0--296" value="8.2: ChoiceLanguage" style="edgeLabel;html=1;align=center;verticalAlign=middle;resizable=0;points=[];" parent="Xf7Vv05EoHktSYIukm0--295" vertex="1" connectable="0">
          <mxGeometry x="0.0036" relative="1" as="geometry">
            <mxPoint y="-9" as="offset" />
          </mxGeometry>
        </mxCell>
        <mxCell id="Xf7Vv05EoHktSYIukm0--297" value="" style="html=1;labelBackgroundColor=#ffffff;startArrow=none;startFill=0;startSize=6;endArrow=classic;endFill=1;endSize=6;jettySize=auto;orthogonalLoop=1;strokeWidth=1;dashed=1;fontSize=14;rounded=0;entryX=0.855;entryY=0.278;entryDx=0;entryDy=0;entryPerimeter=0;exitX=-0.109;exitY=0.752;exitDx=0;exitDy=0;exitPerimeter=0;" parent="1" edge="1">
          <mxGeometry width="60" height="60" relative="1" as="geometry">
            <mxPoint x="1955.9999999999998" y="970.08" as="sourcePoint" />
            <mxPoint x="1765.6399999999999" y="970" as="targetPoint" />
            <Array as="points">
              <mxPoint x="1852.09" y="970" />
            </Array>
          </mxGeometry>
        </mxCell>
        <mxCell id="Xf7Vv05EoHktSYIukm0--298" value="8.4: Response" style="edgeLabel;html=1;align=center;verticalAlign=middle;resizable=0;points=[];" parent="1" vertex="1" connectable="0">
          <mxGeometry x="1859.22" y="960" as="geometry" />
        </mxCell>
        <mxCell id="Xf7Vv05EoHktSYIukm0--299" value="" style="html=1;points=[];perimeter=orthogonalPerimeter;rounded=0;shadow=0;comic=0;labelBackgroundColor=none;strokeWidth=1;fontFamily=Verdana;fontSize=12;align=center;" parent="1" vertex="1">
          <mxGeometry x="1956" y="910" width="10" height="80" as="geometry" />
        </mxCell>
        <mxCell id="Xf7Vv05EoHktSYIukm0--300" value="" style="html=1;labelBackgroundColor=#ffffff;startArrow=none;startFill=0;startSize=6;endArrow=classic;endFill=1;endSize=6;jettySize=auto;orthogonalLoop=1;strokeWidth=1;dashed=1;fontSize=14;rounded=0;entryX=0.855;entryY=0.278;entryDx=0;entryDy=0;entryPerimeter=0;" parent="1" edge="1">
          <mxGeometry width="60" height="60" relative="1" as="geometry">
            <mxPoint x="1750.95" y="1168" as="sourcePoint" />
            <mxPoint x="1565" y="1168" as="targetPoint" />
          </mxGeometry>
        </mxCell>
        <mxCell id="Xf7Vv05EoHktSYIukm0--301" value="9.5: Response" style="edgeLabel;html=1;align=center;verticalAlign=middle;resizable=0;points=[];" parent="1" vertex="1" connectable="0">
          <mxGeometry x="1662.7" y="1158" as="geometry" />
        </mxCell>
        <mxCell id="Xf7Vv05EoHktSYIukm0--302" value="" style="endArrow=classic;html=1;rounded=0;" parent="1" edge="1">
          <mxGeometry width="50" height="50" relative="1" as="geometry">
            <mxPoint x="1565.8899999999999" y="1079" as="sourcePoint" />
            <mxPoint x="1754.1100000000001" y="1079" as="targetPoint" />
          </mxGeometry>
        </mxCell>
        <mxCell id="Xf7Vv05EoHktSYIukm0--303" value="9.1: ShowLogs" style="edgeLabel;html=1;align=center;verticalAlign=middle;resizable=0;points=[];" parent="Xf7Vv05EoHktSYIukm0--302" vertex="1" connectable="0">
          <mxGeometry x="0.0036" relative="1" as="geometry">
            <mxPoint y="-9" as="offset" />
          </mxGeometry>
        </mxCell>
        <mxCell id="Xf7Vv05EoHktSYIukm0--304" value="" style="html=1;points=[];perimeter=orthogonalPerimeter;rounded=0;shadow=0;comic=0;labelBackgroundColor=none;strokeWidth=1;fontFamily=Verdana;fontSize=12;align=center;" parent="1" vertex="1">
          <mxGeometry x="1756" y="1068" width="10" height="100" as="geometry" />
        </mxCell>
        <mxCell id="Xf7Vv05EoHktSYIukm0--307" value="" style="endArrow=classic;html=1;rounded=0;exitX=0.838;exitY=0.15;exitDx=0;exitDy=0;exitPerimeter=0;" parent="1" source="Xf7Vv05EoHktSYIukm0--304" edge="1">
          <mxGeometry width="50" height="50" relative="1" as="geometry">
            <mxPoint x="1761.94" y="1082.47" as="sourcePoint" />
            <mxPoint x="1956" y="1082.47" as="targetPoint" />
          </mxGeometry>
        </mxCell>
        <mxCell id="Xf7Vv05EoHktSYIukm0--308" value="9.2: ShowLogs" style="edgeLabel;html=1;align=center;verticalAlign=middle;resizable=0;points=[];" parent="Xf7Vv05EoHktSYIukm0--307" vertex="1" connectable="0">
          <mxGeometry x="0.0036" relative="1" as="geometry">
            <mxPoint y="-9" as="offset" />
          </mxGeometry>
        </mxCell>
        <mxCell id="Xf7Vv05EoHktSYIukm0--309" value="" style="html=1;labelBackgroundColor=#ffffff;startArrow=none;startFill=0;startSize=6;endArrow=classic;endFill=1;endSize=6;jettySize=auto;orthogonalLoop=1;strokeWidth=1;dashed=1;fontSize=14;rounded=0;entryX=0.855;entryY=0.278;entryDx=0;entryDy=0;entryPerimeter=0;exitX=-0.109;exitY=0.752;exitDx=0;exitDy=0;exitPerimeter=0;" parent="1" edge="1">
          <mxGeometry width="60" height="60" relative="1" as="geometry">
            <mxPoint x="1955.9999999999998" y="1138.08" as="sourcePoint" />
            <mxPoint x="1765.6399999999999" y="1138" as="targetPoint" />
            <Array as="points">
              <mxPoint x="1852.09" y="1138" />
            </Array>
          </mxGeometry>
        </mxCell>
        <mxCell id="Xf7Vv05EoHktSYIukm0--310" value="9.4: Response" style="edgeLabel;html=1;align=center;verticalAlign=middle;resizable=0;points=[];" parent="1" vertex="1" connectable="0">
          <mxGeometry x="1859.22" y="1128" as="geometry" />
        </mxCell>
        <mxCell id="Xf7Vv05EoHktSYIukm0--311" value="" style="html=1;points=[];perimeter=orthogonalPerimeter;rounded=0;shadow=0;comic=0;labelBackgroundColor=none;strokeWidth=1;fontFamily=Verdana;fontSize=12;align=center;" parent="1" vertex="1">
          <mxGeometry x="1956" y="1078" width="10" height="80" as="geometry" />
        </mxCell>
        <mxCell id="Xf7Vv05EoHktSYIukm0--313" value="" style="html=1;labelBackgroundColor=#ffffff;startArrow=none;startFill=0;startSize=6;endArrow=classic;endFill=1;endSize=6;jettySize=auto;orthogonalLoop=1;strokeWidth=1;dashed=1;fontSize=14;rounded=0;entryX=0.855;entryY=0.278;entryDx=0;entryDy=0;entryPerimeter=0;" parent="1" edge="1">
          <mxGeometry width="60" height="60" relative="1" as="geometry">
            <mxPoint x="1750.95" y="1330" as="sourcePoint" />
            <mxPoint x="1565" y="1330" as="targetPoint" />
          </mxGeometry>
        </mxCell>
        <mxCell id="Xf7Vv05EoHktSYIukm0--314" value="10.4: Response" style="edgeLabel;html=1;align=center;verticalAlign=middle;resizable=0;points=[];" parent="1" vertex="1" connectable="0">
          <mxGeometry x="1662.7" y="1320" as="geometry" />
        </mxCell>
        <mxCell id="Xf7Vv05EoHktSYIukm0--315" value="" style="endArrow=classic;html=1;rounded=0;" parent="1" edge="1">
          <mxGeometry width="50" height="50" relative="1" as="geometry">
            <mxPoint x="1565.8899999999999" y="1241" as="sourcePoint" />
            <mxPoint x="1754.1100000000001" y="1241" as="targetPoint" />
          </mxGeometry>
        </mxCell>
        <mxCell id="Xf7Vv05EoHktSYIukm0--316" value="10.1: Exit" style="edgeLabel;html=1;align=center;verticalAlign=middle;resizable=0;points=[];" parent="Xf7Vv05EoHktSYIukm0--315" vertex="1" connectable="0">
          <mxGeometry x="0.0036" relative="1" as="geometry">
            <mxPoint y="-9" as="offset" />
          </mxGeometry>
        </mxCell>
        <mxCell id="Xf7Vv05EoHktSYIukm0--317" value="" style="html=1;points=[];perimeter=orthogonalPerimeter;rounded=0;shadow=0;comic=0;labelBackgroundColor=none;strokeWidth=1;fontFamily=Verdana;fontSize=12;align=center;" parent="1" vertex="1">
          <mxGeometry x="1756" y="1230" width="10" height="100" as="geometry" />
        </mxCell>
        <mxCell id="Xf7Vv05EoHktSYIukm0--320" value="" style="endArrow=classic;html=1;rounded=0;exitX=0.838;exitY=0.15;exitDx=0;exitDy=0;exitPerimeter=0;" parent="1" edge="1">
          <mxGeometry width="50" height="50" relative="1" as="geometry">
            <mxPoint x="1764.3799999999997" y="1260.53" as="sourcePoint" />
            <mxPoint x="1956" y="1260" as="targetPoint" />
          </mxGeometry>
        </mxCell>
        <mxCell id="Xf7Vv05EoHktSYIukm0--321" value="10.2: Exit" style="edgeLabel;html=1;align=center;verticalAlign=middle;resizable=0;points=[];" parent="Xf7Vv05EoHktSYIukm0--320" vertex="1" connectable="0">
          <mxGeometry x="0.0036" relative="1" as="geometry">
            <mxPoint y="-9" as="offset" />
          </mxGeometry>
        </mxCell>
        <mxCell id="Xf7Vv05EoHktSYIukm0--322" value="" style="html=1;labelBackgroundColor=#ffffff;startArrow=none;startFill=0;startSize=6;endArrow=classic;endFill=1;endSize=6;jettySize=auto;orthogonalLoop=1;strokeWidth=1;dashed=1;fontSize=14;rounded=0;entryX=0.855;entryY=0.278;entryDx=0;entryDy=0;entryPerimeter=0;exitX=-0.109;exitY=0.752;exitDx=0;exitDy=0;exitPerimeter=0;" parent="1" edge="1">
          <mxGeometry width="60" height="60" relative="1" as="geometry">
            <mxPoint x="1955.9999999999998" y="1300.08" as="sourcePoint" />
            <mxPoint x="1765.6399999999999" y="1300" as="targetPoint" />
            <Array as="points">
              <mxPoint x="1852.09" y="1300" />
            </Array>
          </mxGeometry>
        </mxCell>
        <mxCell id="Xf7Vv05EoHktSYIukm0--323" value="10.3: Response" style="edgeLabel;html=1;align=center;verticalAlign=middle;resizable=0;points=[];" parent="1" vertex="1" connectable="0">
          <mxGeometry x="1859.22" y="1290" as="geometry" />
        </mxCell>
        <mxCell id="Xf7Vv05EoHktSYIukm0--324" value="" style="html=1;points=[];perimeter=orthogonalPerimeter;rounded=0;shadow=0;comic=0;labelBackgroundColor=none;strokeWidth=1;fontFamily=Verdana;fontSize=12;align=center;" parent="1" vertex="1">
          <mxGeometry x="1956" y="1240" width="10" height="80" as="geometry" />
        </mxCell>
        <mxCell id="Xf7Vv05EoHktSYIukm0--329" value="" style="endArrow=classic;html=1;rounded=0;" parent="1" target="Xf7Vv05EoHktSYIukm0--328" edge="1">
          <mxGeometry width="50" height="50" relative="1" as="geometry">
            <mxPoint x="1555" y="1345" as="sourcePoint" />
            <mxPoint x="1340" y="1350" as="targetPoint" />
          </mxGeometry>
        </mxCell>
        <mxCell id="Xf7Vv05EoHktSYIukm0--328" value="" style="shape=umlDestroy;whiteSpace=wrap;html=1;strokeWidth=3;targetShapes=umlLifeline;" parent="1" vertex="1">
          <mxGeometry x="1330" y="1330" width="30" height="30" as="geometry" />
        </mxCell>
        <mxCell id="Xf7Vv05EoHktSYIukm0--336" value="" style="endArrow=classic;html=1;rounded=0;entryX=1.241;entryY=0.418;entryDx=0;entryDy=0;entryPerimeter=0;exitX=-0.04;exitY=0.07;exitDx=0;exitDy=0;exitPerimeter=0;" parent="1" edge="1">
          <mxGeometry width="50" height="50" relative="1" as="geometry">
            <mxPoint x="1555.6000000000001" y="1510.1" as="sourcePoint" />
            <mxPoint x="1241" y="1510" as="targetPoint" />
          </mxGeometry>
        </mxCell>
        <mxCell id="Xf7Vv05EoHktSYIukm0--337" value="11.6: AskNumber" style="edgeLabel;html=1;align=center;verticalAlign=middle;resizable=0;points=[];" parent="Xf7Vv05EoHktSYIukm0--336" vertex="1" connectable="0">
          <mxGeometry x="0.0124" y="-1" relative="1" as="geometry">
            <mxPoint y="-9" as="offset" />
          </mxGeometry>
        </mxCell>
      </root>
    </mxGraphModel>
  </diagram>
  <diagram id="PkmNj6Ryy4U6wBPleEd9" name="Page-4">
    <mxGraphModel dx="1753" dy="1044" grid="1" gridSize="10" guides="1" tooltips="1" connect="1" arrows="1" fold="1" page="1" pageScale="1" pageWidth="827" pageHeight="1169" math="0" shadow="0">
      <root>
        <mxCell id="0" />
        <mxCell id="1" parent="0" />
        <mxCell id="Qgur_cFArvfmdrVVsR0O-1" value="" style="rounded=0;whiteSpace=wrap;html=1;" vertex="1" parent="1">
          <mxGeometry x="1120" width="970" height="2280" as="geometry" />
        </mxCell>
        <mxCell id="UmgtCyJm2YXy39TeVFce-1" value="View" style="shape=umlLifeline;perimeter=lifelinePerimeter;whiteSpace=wrap;html=1;container=1;collapsible=0;recursiveResize=0;outlineConnect=0;rounded=1;shadow=0;comic=0;labelBackgroundColor=none;strokeWidth=1;fontFamily=Verdana;fontSize=12;align=center;fillColor=#ffe6cc;strokeColor=#d79b00;" parent="1" vertex="1">
          <mxGeometry x="1510" y="80" width="100" height="2010" as="geometry" />
        </mxCell>
        <mxCell id="UmgtCyJm2YXy39TeVFce-2" value="" style="html=1;points=[];perimeter=orthogonalPerimeter;rounded=0;shadow=0;comic=0;labelBackgroundColor=none;strokeWidth=1;fontFamily=Verdana;fontSize=12;align=center;" parent="UmgtCyJm2YXy39TeVFce-1" vertex="1">
          <mxGeometry x="45" y="130" width="10" height="2050" as="geometry" />
        </mxCell>
        <mxCell id="UmgtCyJm2YXy39TeVFce-3" value="" style="html=1;labelBackgroundColor=#ffffff;startArrow=none;startFill=0;startSize=6;endArrow=classic;endFill=1;endSize=6;jettySize=auto;orthogonalLoop=1;strokeWidth=1;dashed=1;fontSize=14;rounded=0;exitX=1.1;exitY=0.297;exitDx=0;exitDy=0;exitPerimeter=0;" parent="UmgtCyJm2YXy39TeVFce-1" edge="1">
          <mxGeometry width="60" height="60" relative="1" as="geometry">
            <mxPoint x="-269" y="620" as="sourcePoint" />
            <mxPoint x="50" y="620" as="targetPoint" />
          </mxGeometry>
        </mxCell>
        <mxCell id="UmgtCyJm2YXy39TeVFce-4" value="7: ClickRecoverBackup" style="edgeLabel;html=1;align=center;verticalAlign=middle;resizable=0;points=[];" parent="UmgtCyJm2YXy39TeVFce-3" vertex="1" connectable="0">
          <mxGeometry x="-0.0195" y="3" relative="1" as="geometry">
            <mxPoint y="-5" as="offset" />
          </mxGeometry>
        </mxCell>
        <mxCell id="UmgtCyJm2YXy39TeVFce-258" value="" style="endArrow=classic;html=1;rounded=0;entryX=1.241;entryY=0.418;entryDx=0;entryDy=0;entryPerimeter=0;exitX=-0.04;exitY=0.07;exitDx=0;exitDy=0;exitPerimeter=0;" parent="UmgtCyJm2YXy39TeVFce-1" edge="1">
          <mxGeometry width="50" height="50" relative="1" as="geometry">
            <mxPoint x="45.600000000000136" y="860.1" as="sourcePoint" />
            <mxPoint x="-269" y="860" as="targetPoint" />
          </mxGeometry>
        </mxCell>
        <mxCell id="UmgtCyJm2YXy39TeVFce-259" value="8.1: SettingsPage" style="edgeLabel;html=1;align=center;verticalAlign=middle;resizable=0;points=[];" parent="UmgtCyJm2YXy39TeVFce-258" vertex="1" connectable="0">
          <mxGeometry x="0.0124" y="-1" relative="1" as="geometry">
            <mxPoint y="-9" as="offset" />
          </mxGeometry>
        </mxCell>
        <mxCell id="UmgtCyJm2YXy39TeVFce-260" value="" style="html=1;labelBackgroundColor=#ffffff;startArrow=none;startFill=0;startSize=6;endArrow=classic;endFill=1;endSize=6;jettySize=auto;orthogonalLoop=1;strokeWidth=1;dashed=1;fontSize=14;rounded=0;exitX=1.1;exitY=0.297;exitDx=0;exitDy=0;exitPerimeter=0;" parent="UmgtCyJm2YXy39TeVFce-1" edge="1">
          <mxGeometry width="60" height="60" relative="1" as="geometry">
            <mxPoint x="-274" y="910" as="sourcePoint" />
            <mxPoint x="45" y="910" as="targetPoint" />
          </mxGeometry>
        </mxCell>
        <mxCell id="UmgtCyJm2YXy39TeVFce-261" value="9: ChooseLanguage" style="edgeLabel;html=1;align=center;verticalAlign=middle;resizable=0;points=[];" parent="UmgtCyJm2YXy39TeVFce-260" vertex="1" connectable="0">
          <mxGeometry x="-0.0195" y="3" relative="1" as="geometry">
            <mxPoint y="-4" as="offset" />
          </mxGeometry>
        </mxCell>
        <mxCell id="UmgtCyJm2YXy39TeVFce-100" value="" style="endArrow=classic;html=1;rounded=0;" parent="UmgtCyJm2YXy39TeVFce-1" edge="1">
          <mxGeometry width="50" height="50" relative="1" as="geometry">
            <mxPoint x="258.21" y="979" as="sourcePoint" />
            <mxPoint x="444.21" y="979.47" as="targetPoint" />
          </mxGeometry>
        </mxCell>
        <mxCell id="UmgtCyJm2YXy39TeVFce-101" value="9.2: ChangeLanguage" style="edgeLabel;html=1;align=center;verticalAlign=middle;resizable=0;points=[];" parent="UmgtCyJm2YXy39TeVFce-100" vertex="1" connectable="0">
          <mxGeometry x="0.0036" relative="1" as="geometry">
            <mxPoint y="-9" as="offset" />
          </mxGeometry>
        </mxCell>
        <mxCell id="UmgtCyJm2YXy39TeVFce-85" value="" style="endArrow=classic;html=1;rounded=0;" parent="UmgtCyJm2YXy39TeVFce-1" edge="1">
          <mxGeometry width="50" height="50" relative="1" as="geometry">
            <mxPoint x="57.59999999999987" y="960" as="sourcePoint" />
            <mxPoint x="245.82000000000014" y="960" as="targetPoint" />
          </mxGeometry>
        </mxCell>
        <mxCell id="UmgtCyJm2YXy39TeVFce-86" value="9.1: ChangeLanguage" style="edgeLabel;html=1;align=center;verticalAlign=middle;resizable=0;points=[];" parent="UmgtCyJm2YXy39TeVFce-85" vertex="1" connectable="0">
          <mxGeometry x="0.0036" relative="1" as="geometry">
            <mxPoint y="-9" as="offset" />
          </mxGeometry>
        </mxCell>
        <mxCell id="UmgtCyJm2YXy39TeVFce-143" value="9.4: Response" style="edgeLabel;html=1;align=center;verticalAlign=middle;resizable=0;points=[];" parent="UmgtCyJm2YXy39TeVFce-1" vertex="1" connectable="0">
          <mxGeometry x="151.28999999999994" y="1029" as="geometry">
            <mxPoint x="1" y="-12" as="offset" />
          </mxGeometry>
        </mxCell>
        <mxCell id="UmgtCyJm2YXy39TeVFce-144" value="" style="html=1;labelBackgroundColor=#ffffff;startArrow=none;startFill=0;startSize=6;endArrow=classic;endFill=1;endSize=6;jettySize=auto;orthogonalLoop=1;strokeWidth=1;dashed=1;fontSize=14;rounded=0;entryX=0.855;entryY=0.278;entryDx=0;entryDy=0;entryPerimeter=0;exitX=-0.109;exitY=0.752;exitDx=0;exitDy=0;exitPerimeter=0;" parent="UmgtCyJm2YXy39TeVFce-1" edge="1">
          <mxGeometry width="60" height="60" relative="1" as="geometry">
            <mxPoint x="247.06999999999968" y="1029.08" as="sourcePoint" />
            <mxPoint x="56.70999999999977" y="1029" as="targetPoint" />
            <Array as="points">
              <mxPoint x="143.15999999999983" y="1029" />
            </Array>
          </mxGeometry>
        </mxCell>
        <mxCell id="UmgtCyJm2YXy39TeVFce-98" value="" style="endArrow=classic;html=1;rounded=0;exitX=1.044;exitY=0.231;exitDx=0;exitDy=0;exitPerimeter=0;" parent="UmgtCyJm2YXy39TeVFce-1" edge="1">
          <mxGeometry width="50" height="50" relative="1" as="geometry">
            <mxPoint x="250.36" y="1130" as="sourcePoint" />
            <mxPoint x="444.58000000000004" y="1130" as="targetPoint" />
          </mxGeometry>
        </mxCell>
        <mxCell id="UmgtCyJm2YXy39TeVFce-99" value="10.2: ChangeLogFormat" style="edgeLabel;html=1;align=center;verticalAlign=middle;resizable=0;points=[];" parent="UmgtCyJm2YXy39TeVFce-98" vertex="1" connectable="0">
          <mxGeometry x="0.0036" relative="1" as="geometry">
            <mxPoint y="-9" as="offset" />
          </mxGeometry>
        </mxCell>
        <mxCell id="UmgtCyJm2YXy39TeVFce-145" value="10.4: Response" style="edgeLabel;html=1;align=center;verticalAlign=middle;resizable=0;points=[];" parent="UmgtCyJm2YXy39TeVFce-1" vertex="1" connectable="0">
          <mxGeometry x="148.23000000000002" y="1170" as="geometry">
            <mxPoint x="1" y="-12" as="offset" />
          </mxGeometry>
        </mxCell>
        <mxCell id="UmgtCyJm2YXy39TeVFce-146" value="" style="html=1;labelBackgroundColor=#ffffff;startArrow=none;startFill=0;startSize=6;endArrow=classic;endFill=1;endSize=6;jettySize=auto;orthogonalLoop=1;strokeWidth=1;dashed=1;fontSize=14;rounded=0;entryX=0.855;entryY=0.278;entryDx=0;entryDy=0;entryPerimeter=0;exitX=-0.109;exitY=0.752;exitDx=0;exitDy=0;exitPerimeter=0;" parent="UmgtCyJm2YXy39TeVFce-1" edge="1">
          <mxGeometry width="60" height="60" relative="1" as="geometry">
            <mxPoint x="244.00999999999976" y="1170.08" as="sourcePoint" />
            <mxPoint x="53.649999999999864" y="1170" as="targetPoint" />
            <Array as="points">
              <mxPoint x="140.0999999999999" y="1170" />
            </Array>
          </mxGeometry>
        </mxCell>
        <mxCell id="UmgtCyJm2YXy39TeVFce-137" value="" style="endArrow=classic;html=1;rounded=0;exitX=1.044;exitY=0.231;exitDx=0;exitDy=0;exitPerimeter=0;entryX=0.014;entryY=0.558;entryDx=0;entryDy=0;entryPerimeter=0;" parent="UmgtCyJm2YXy39TeVFce-1" edge="1">
          <mxGeometry width="50" height="50" relative="1" as="geometry">
            <mxPoint x="55.72999999999999" y="1280.95" as="sourcePoint" />
            <mxPoint x="244.73" y="1280" as="targetPoint" />
          </mxGeometry>
        </mxCell>
        <mxCell id="UmgtCyJm2YXy39TeVFce-138" value="11.1: ChangeLogicielMetier&amp;nbsp;" style="edgeLabel;html=1;align=center;verticalAlign=middle;resizable=0;points=[];" parent="UmgtCyJm2YXy39TeVFce-137" vertex="1" connectable="0">
          <mxGeometry x="0.0036" relative="1" as="geometry">
            <mxPoint y="-9" as="offset" />
          </mxGeometry>
        </mxCell>
        <mxCell id="UmgtCyJm2YXy39TeVFce-139" value="10.3: Response" style="edgeLabel;html=1;align=center;verticalAlign=middle;resizable=0;points=[];" parent="UmgtCyJm2YXy39TeVFce-1" vertex="1" connectable="0">
          <mxGeometry x="346.8699999999999" y="1160" as="geometry">
            <mxPoint x="1" y="-12" as="offset" />
          </mxGeometry>
        </mxCell>
        <mxCell id="UmgtCyJm2YXy39TeVFce-140" value="" style="html=1;labelBackgroundColor=#ffffff;startArrow=none;startFill=0;startSize=6;endArrow=classic;endFill=1;endSize=6;jettySize=auto;orthogonalLoop=1;strokeWidth=1;dashed=1;fontSize=14;rounded=0;entryX=0.855;entryY=0.278;entryDx=0;entryDy=0;entryPerimeter=0;exitX=-0.109;exitY=0.752;exitDx=0;exitDy=0;exitPerimeter=0;" parent="UmgtCyJm2YXy39TeVFce-1" edge="1">
          <mxGeometry width="60" height="60" relative="1" as="geometry">
            <mxPoint x="442.64999999999964" y="1160.08" as="sourcePoint" />
            <mxPoint x="252.28999999999976" y="1160" as="targetPoint" />
            <Array as="points">
              <mxPoint x="338.7399999999998" y="1160" />
            </Array>
          </mxGeometry>
        </mxCell>
        <mxCell id="UmgtCyJm2YXy39TeVFce-141" value="9.3: Response" style="edgeLabel;html=1;align=center;verticalAlign=middle;resizable=0;points=[];" parent="UmgtCyJm2YXy39TeVFce-1" vertex="1" connectable="0">
          <mxGeometry x="351.2899999999999" y="1009" as="geometry">
            <mxPoint x="1" y="-12" as="offset" />
          </mxGeometry>
        </mxCell>
        <mxCell id="UmgtCyJm2YXy39TeVFce-142" value="" style="html=1;labelBackgroundColor=#ffffff;startArrow=none;startFill=0;startSize=6;endArrow=classic;endFill=1;endSize=6;jettySize=auto;orthogonalLoop=1;strokeWidth=1;dashed=1;fontSize=14;rounded=0;entryX=0.855;entryY=0.278;entryDx=0;entryDy=0;entryPerimeter=0;exitX=-0.109;exitY=0.752;exitDx=0;exitDy=0;exitPerimeter=0;" parent="UmgtCyJm2YXy39TeVFce-1" edge="1">
          <mxGeometry width="60" height="60" relative="1" as="geometry">
            <mxPoint x="447.06999999999965" y="1009.0799999999999" as="sourcePoint" />
            <mxPoint x="256.70999999999975" y="1009" as="targetPoint" />
            <Array as="points">
              <mxPoint x="343.1599999999998" y="1009" />
            </Array>
          </mxGeometry>
        </mxCell>
        <mxCell id="UmgtCyJm2YXy39TeVFce-135" value="" style="endArrow=classic;html=1;rounded=0;exitX=1.044;exitY=0.231;exitDx=0;exitDy=0;exitPerimeter=0;entryX=0.014;entryY=0.558;entryDx=0;entryDy=0;entryPerimeter=0;" parent="UmgtCyJm2YXy39TeVFce-1" edge="1">
          <mxGeometry width="50" height="50" relative="1" as="geometry">
            <mxPoint x="55.20000000000002" y="1110.95" as="sourcePoint" />
            <mxPoint x="244.2" y="1110" as="targetPoint" />
          </mxGeometry>
        </mxCell>
        <mxCell id="UmgtCyJm2YXy39TeVFce-136" value="10.1: ChangeLogFormat" style="edgeLabel;html=1;align=center;verticalAlign=middle;resizable=0;points=[];" parent="UmgtCyJm2YXy39TeVFce-135" vertex="1" connectable="0">
          <mxGeometry x="0.0036" relative="1" as="geometry">
            <mxPoint y="-9" as="offset" />
          </mxGeometry>
        </mxCell>
        <mxCell id="UmgtCyJm2YXy39TeVFce-131" value="" style="endArrow=classic;html=1;rounded=0;exitX=1.044;exitY=0.231;exitDx=0;exitDy=0;exitPerimeter=0;entryX=0.014;entryY=0.558;entryDx=0;entryDy=0;entryPerimeter=0;" parent="UmgtCyJm2YXy39TeVFce-1" edge="1">
          <mxGeometry width="50" height="50" relative="1" as="geometry">
            <mxPoint x="255.04000000000002" y="1291.95" as="sourcePoint" />
            <mxPoint x="444.04" y="1291" as="targetPoint" />
          </mxGeometry>
        </mxCell>
        <mxCell id="UmgtCyJm2YXy39TeVFce-132" value="11.2: ChangeLogicielMetier&amp;nbsp;" style="edgeLabel;html=1;align=center;verticalAlign=middle;resizable=0;points=[];" parent="UmgtCyJm2YXy39TeVFce-131" vertex="1" connectable="0">
          <mxGeometry x="0.0036" relative="1" as="geometry">
            <mxPoint y="-9" as="offset" />
          </mxGeometry>
        </mxCell>
        <mxCell id="UmgtCyJm2YXy39TeVFce-103" value="11.3: Response" style="edgeLabel;html=1;align=center;verticalAlign=middle;resizable=0;points=[];" parent="UmgtCyJm2YXy39TeVFce-1" vertex="1" connectable="0">
          <mxGeometry x="348.76000000000005" y="1325" as="geometry">
            <mxPoint x="1" y="-12" as="offset" />
          </mxGeometry>
        </mxCell>
        <mxCell id="UmgtCyJm2YXy39TeVFce-82" value="11.4: Response" style="edgeLabel;html=1;align=center;verticalAlign=middle;resizable=0;points=[];" parent="UmgtCyJm2YXy39TeVFce-1" vertex="1" connectable="0">
          <mxGeometry x="152.24000000000004" y="1335" as="geometry" />
        </mxCell>
        <mxCell id="UmgtCyJm2YXy39TeVFce-5" value="" style="html=1;labelBackgroundColor=#ffffff;startArrow=none;startFill=0;startSize=6;endArrow=classic;endFill=1;endSize=6;jettySize=auto;orthogonalLoop=1;strokeWidth=1;dashed=1;fontSize=14;rounded=0;entryX=0.855;entryY=0.278;entryDx=0;entryDy=0;entryPerimeter=0;" parent="UmgtCyJm2YXy39TeVFce-1" edge="1">
          <mxGeometry width="60" height="60" relative="1" as="geometry">
            <mxPoint x="240.49000000000004" y="1345" as="sourcePoint" />
            <mxPoint x="54.54" y="1345" as="targetPoint" />
          </mxGeometry>
        </mxCell>
        <mxCell id="UmgtCyJm2YXy39TeVFce-102" value="" style="html=1;labelBackgroundColor=#ffffff;startArrow=none;startFill=0;startSize=6;endArrow=classic;endFill=1;endSize=6;jettySize=auto;orthogonalLoop=1;strokeWidth=1;dashed=1;fontSize=14;rounded=0;entryX=1.059;entryY=0.857;entryDx=0;entryDy=0;entryPerimeter=0;exitX=-0.033;exitY=0.851;exitDx=0;exitDy=0;exitPerimeter=0;" parent="UmgtCyJm2YXy39TeVFce-1" edge="1">
          <mxGeometry width="60" height="60" relative="1" as="geometry">
            <mxPoint x="447.45999999999964" y="1324.77" as="sourcePoint" />
            <mxPoint x="258.3799999999997" y="1324.96" as="targetPoint" />
            <Array as="points">
              <mxPoint x="340.62999999999994" y="1325" />
            </Array>
          </mxGeometry>
        </mxCell>
        <mxCell id="UmgtCyJm2YXy39TeVFce-104" value="" style="html=1;points=[];perimeter=orthogonalPerimeter;rounded=0;shadow=0;comic=0;labelBackgroundColor=none;strokeWidth=1;fontFamily=Verdana;fontSize=12;align=center;" parent="UmgtCyJm2YXy39TeVFce-1" vertex="1">
          <mxGeometry x="445.46" y="940" width="10" height="440" as="geometry" />
        </mxCell>
        <mxCell id="UmgtCyJm2YXy39TeVFce-266" value="" style="html=1;labelBackgroundColor=#ffffff;startArrow=none;startFill=0;startSize=6;endArrow=classic;endFill=1;endSize=6;jettySize=auto;orthogonalLoop=1;strokeWidth=1;dashed=1;fontSize=14;rounded=0;exitX=1.1;exitY=0.297;exitDx=0;exitDy=0;exitPerimeter=0;" parent="UmgtCyJm2YXy39TeVFce-1" edge="1">
          <mxGeometry width="60" height="60" relative="1" as="geometry">
            <mxPoint x="-274" y="1089" as="sourcePoint" />
            <mxPoint x="45" y="1089" as="targetPoint" />
          </mxGeometry>
        </mxCell>
        <mxCell id="UmgtCyJm2YXy39TeVFce-267" value="10: ChooseLogFormat" style="edgeLabel;html=1;align=center;verticalAlign=middle;resizable=0;points=[];" parent="UmgtCyJm2YXy39TeVFce-266" vertex="1" connectable="0">
          <mxGeometry x="-0.0195" y="3" relative="1" as="geometry">
            <mxPoint y="-4" as="offset" />
          </mxGeometry>
        </mxCell>
        <mxCell id="UmgtCyJm2YXy39TeVFce-268" value="" style="endArrow=classic;html=1;rounded=0;entryX=1.241;entryY=0.418;entryDx=0;entryDy=0;entryPerimeter=0;exitX=-0.04;exitY=0.07;exitDx=0;exitDy=0;exitPerimeter=0;" parent="UmgtCyJm2YXy39TeVFce-1" edge="1">
          <mxGeometry width="50" height="50" relative="1" as="geometry">
            <mxPoint x="45.600000000000136" y="1190.1" as="sourcePoint" />
            <mxPoint x="-269" y="1190" as="targetPoint" />
          </mxGeometry>
        </mxCell>
        <mxCell id="UmgtCyJm2YXy39TeVFce-269" value="10.5: SettingsPage" style="edgeLabel;html=1;align=center;verticalAlign=middle;resizable=0;points=[];" parent="UmgtCyJm2YXy39TeVFce-268" vertex="1" connectable="0">
          <mxGeometry x="0.0124" y="-1" relative="1" as="geometry">
            <mxPoint y="-9" as="offset" />
          </mxGeometry>
        </mxCell>
        <mxCell id="UmgtCyJm2YXy39TeVFce-54" value="" style="html=1;labelBackgroundColor=#ffffff;startArrow=none;startFill=0;startSize=6;endArrow=classic;endFill=1;endSize=6;jettySize=auto;orthogonalLoop=1;strokeWidth=1;dashed=1;fontSize=14;rounded=0;exitX=1.1;exitY=0.297;exitDx=0;exitDy=0;exitPerimeter=0;" parent="UmgtCyJm2YXy39TeVFce-1" edge="1">
          <mxGeometry width="60" height="60" relative="1" as="geometry">
            <mxPoint x="-269" y="390" as="sourcePoint" />
            <mxPoint x="45" y="389.99999999999994" as="targetPoint" />
          </mxGeometry>
        </mxCell>
        <mxCell id="UmgtCyJm2YXy39TeVFce-55" value="6: ClickExecuteBackup" style="edgeLabel;html=1;align=center;verticalAlign=middle;resizable=0;points=[];" parent="UmgtCyJm2YXy39TeVFce-54" vertex="1" connectable="0">
          <mxGeometry x="-0.0195" y="3" relative="1" as="geometry">
            <mxPoint y="-5" as="offset" />
          </mxGeometry>
        </mxCell>
        <mxCell id="UmgtCyJm2YXy39TeVFce-274" value="" style="endArrow=classic;html=1;rounded=0;exitX=1.044;exitY=0.231;exitDx=0;exitDy=0;exitPerimeter=0;entryX=0.014;entryY=0.558;entryDx=0;entryDy=0;entryPerimeter=0;" parent="UmgtCyJm2YXy39TeVFce-1" edge="1">
          <mxGeometry width="50" height="50" relative="1" as="geometry">
            <mxPoint x="56.73000000000002" y="1490.95" as="sourcePoint" />
            <mxPoint x="245.73000000000002" y="1490" as="targetPoint" />
          </mxGeometry>
        </mxCell>
        <mxCell id="UmgtCyJm2YXy39TeVFce-275" value="12.1:ChangeCryptExtension&amp;nbsp;" style="edgeLabel;html=1;align=center;verticalAlign=middle;resizable=0;points=[];" parent="UmgtCyJm2YXy39TeVFce-274" vertex="1" connectable="0">
          <mxGeometry x="0.0036" relative="1" as="geometry">
            <mxPoint y="-9" as="offset" />
          </mxGeometry>
        </mxCell>
        <mxCell id="UmgtCyJm2YXy39TeVFce-276" value="" style="endArrow=classic;html=1;rounded=0;exitX=1.044;exitY=0.231;exitDx=0;exitDy=0;exitPerimeter=0;entryX=0.014;entryY=0.558;entryDx=0;entryDy=0;entryPerimeter=0;" parent="UmgtCyJm2YXy39TeVFce-1" edge="1">
          <mxGeometry width="50" height="50" relative="1" as="geometry">
            <mxPoint x="256.03999999999996" y="1501.95" as="sourcePoint" />
            <mxPoint x="445.03999999999996" y="1501" as="targetPoint" />
          </mxGeometry>
        </mxCell>
        <mxCell id="UmgtCyJm2YXy39TeVFce-277" value="12.2: ChangeCryptExtension" style="edgeLabel;html=1;align=center;verticalAlign=middle;resizable=0;points=[];" parent="UmgtCyJm2YXy39TeVFce-276" vertex="1" connectable="0">
          <mxGeometry x="0.0036" relative="1" as="geometry">
            <mxPoint y="-9" as="offset" />
          </mxGeometry>
        </mxCell>
        <mxCell id="UmgtCyJm2YXy39TeVFce-282" value="" style="html=1;labelBackgroundColor=#ffffff;startArrow=none;startFill=0;startSize=6;endArrow=classic;endFill=1;endSize=6;jettySize=auto;orthogonalLoop=1;strokeWidth=1;dashed=1;fontSize=14;rounded=0;exitX=1.1;exitY=0.297;exitDx=0;exitDy=0;exitPerimeter=0;entryX=-0.049;entryY=0.551;entryDx=0;entryDy=0;entryPerimeter=0;" parent="UmgtCyJm2YXy39TeVFce-1" edge="1">
          <mxGeometry width="60" height="60" relative="1" as="geometry">
            <mxPoint x="-269" y="1470" as="sourcePoint" />
            <mxPoint x="46" y="1470" as="targetPoint" />
          </mxGeometry>
        </mxCell>
        <mxCell id="UmgtCyJm2YXy39TeVFce-283" value="12: ChooseCryptExtension" style="edgeLabel;html=1;align=center;verticalAlign=middle;resizable=0;points=[];" parent="UmgtCyJm2YXy39TeVFce-282" vertex="1" connectable="0">
          <mxGeometry x="-0.0195" y="3" relative="1" as="geometry">
            <mxPoint y="-4" as="offset" />
          </mxGeometry>
        </mxCell>
        <mxCell id="UmgtCyJm2YXy39TeVFce-7" value="Model" style="shape=umlLifeline;perimeter=lifelinePerimeter;whiteSpace=wrap;html=1;container=1;collapsible=0;recursiveResize=0;outlineConnect=0;rounded=1;shadow=0;comic=0;labelBackgroundColor=none;strokeWidth=1;fontFamily=Verdana;fontSize=12;align=center;fillColor=#d5e8d4;strokeColor=#82b366;" parent="1" vertex="1">
          <mxGeometry x="1710" y="80" width="100" height="1490" as="geometry" />
        </mxCell>
        <mxCell id="UmgtCyJm2YXy39TeVFce-8" value="" style="html=1;points=[];perimeter=orthogonalPerimeter;rounded=0;shadow=0;comic=0;labelBackgroundColor=none;strokeWidth=1;fontFamily=Verdana;fontSize=12;align=center;" parent="UmgtCyJm2YXy39TeVFce-7" vertex="1">
          <mxGeometry x="45" y="90" width="10" height="80" as="geometry" />
        </mxCell>
        <mxCell id="UmgtCyJm2YXy39TeVFce-9" value="1: Application launch" style="html=1;verticalAlign=bottom;endArrow=block;labelBackgroundColor=none;fontFamily=Verdana;fontSize=12;edgeStyle=elbowEdgeStyle;elbow=vertical;rounded=0;" parent="UmgtCyJm2YXy39TeVFce-7" edge="1">
          <mxGeometry relative="1" as="geometry">
            <mxPoint x="-349.5000000000001" y="99.99806451612903" as="sourcePoint" />
            <mxPoint x="45" y="99.99806451612903" as="targetPoint" />
          </mxGeometry>
        </mxCell>
        <mxCell id="UmgtCyJm2YXy39TeVFce-10" value="" style="html=1;verticalAlign=bottom;endArrow=block;entryX=0;entryY=0;labelBackgroundColor=none;fontFamily=Verdana;fontSize=12;edgeStyle=elbowEdgeStyle;elbow=vertical;rounded=0;exitX=0.937;exitY=1.001;exitDx=0;exitDy=0;exitPerimeter=0;" parent="UmgtCyJm2YXy39TeVFce-7" edge="1">
          <mxGeometry relative="1" as="geometry">
            <mxPoint x="55.000000000000114" y="140.07999999999998" as="sourcePoint" />
            <mxPoint x="245.63" y="140.00000000000017" as="targetPoint" />
          </mxGeometry>
        </mxCell>
        <mxCell id="UmgtCyJm2YXy39TeVFce-11" value="" style="html=1;points=[];perimeter=orthogonalPerimeter;rounded=0;shadow=0;comic=0;labelBackgroundColor=none;strokeWidth=1;fontFamily=Verdana;fontSize=12;align=center;" parent="UmgtCyJm2YXy39TeVFce-7" vertex="1">
          <mxGeometry x="45" y="230" width="10" height="100" as="geometry" />
        </mxCell>
        <mxCell id="UmgtCyJm2YXy39TeVFce-12" value="" style="endArrow=classic;html=1;rounded=0;exitX=1.044;exitY=0.231;exitDx=0;exitDy=0;exitPerimeter=0;entryX=0.014;entryY=0.558;entryDx=0;entryDy=0;entryPerimeter=0;" parent="UmgtCyJm2YXy39TeVFce-7" edge="1">
          <mxGeometry width="50" height="50" relative="1" as="geometry">
            <mxPoint x="56" y="268.95" as="sourcePoint" />
            <mxPoint x="245.13999999999987" y="268.34000000000003" as="targetPoint" />
          </mxGeometry>
        </mxCell>
        <mxCell id="UmgtCyJm2YXy39TeVFce-13" value="5.3: UpdateLogs" style="edgeLabel;html=1;align=center;verticalAlign=middle;resizable=0;points=[];" parent="UmgtCyJm2YXy39TeVFce-12" vertex="1" connectable="0">
          <mxGeometry x="0.0036" relative="1" as="geometry">
            <mxPoint y="-9" as="offset" />
          </mxGeometry>
        </mxCell>
        <mxCell id="UmgtCyJm2YXy39TeVFce-14" value="" style="html=1;points=[];perimeter=orthogonalPerimeter;rounded=0;shadow=0;comic=0;labelBackgroundColor=none;strokeWidth=1;fontFamily=Verdana;fontSize=12;align=center;" parent="UmgtCyJm2YXy39TeVFce-7" vertex="1">
          <mxGeometry x="45" y="420" width="10" height="100" as="geometry" />
        </mxCell>
        <mxCell id="UmgtCyJm2YXy39TeVFce-15" value="" style="endArrow=classic;html=1;rounded=0;exitX=1.044;exitY=0.231;exitDx=0;exitDy=0;exitPerimeter=0;entryX=0.014;entryY=0.558;entryDx=0;entryDy=0;entryPerimeter=0;" parent="UmgtCyJm2YXy39TeVFce-7" edge="1">
          <mxGeometry width="50" height="50" relative="1" as="geometry">
            <mxPoint x="56" y="458.95" as="sourcePoint" />
            <mxPoint x="245" y="458" as="targetPoint" />
          </mxGeometry>
        </mxCell>
        <mxCell id="UmgtCyJm2YXy39TeVFce-16" value="6.3: UpdateLogs" style="edgeLabel;html=1;align=center;verticalAlign=middle;resizable=0;points=[];" parent="UmgtCyJm2YXy39TeVFce-15" vertex="1" connectable="0">
          <mxGeometry x="0.0036" relative="1" as="geometry">
            <mxPoint y="-9" as="offset" />
          </mxGeometry>
        </mxCell>
        <mxCell id="UmgtCyJm2YXy39TeVFce-17" value="" style="endArrow=classic;html=1;rounded=0;exitX=0.838;exitY=0.15;exitDx=0;exitDy=0;exitPerimeter=0;" parent="UmgtCyJm2YXy39TeVFce-7" source="UmgtCyJm2YXy39TeVFce-14" edge="1">
          <mxGeometry width="50" height="50" relative="1" as="geometry">
            <mxPoint x="50.940000000000055" y="434.47" as="sourcePoint" />
            <mxPoint x="245" y="434.47" as="targetPoint" />
          </mxGeometry>
        </mxCell>
        <mxCell id="UmgtCyJm2YXy39TeVFce-18" value="6.2: ExecuteBackup" style="edgeLabel;html=1;align=center;verticalAlign=middle;resizable=0;points=[];" parent="UmgtCyJm2YXy39TeVFce-17" vertex="1" connectable="0">
          <mxGeometry x="0.0036" relative="1" as="geometry">
            <mxPoint y="-9" as="offset" />
          </mxGeometry>
        </mxCell>
        <mxCell id="UmgtCyJm2YXy39TeVFce-19" value="" style="html=1;labelBackgroundColor=#ffffff;startArrow=none;startFill=0;startSize=6;endArrow=classic;endFill=1;endSize=6;jettySize=auto;orthogonalLoop=1;strokeWidth=1;dashed=1;fontSize=14;rounded=0;entryX=0.855;entryY=0.278;entryDx=0;entryDy=0;entryPerimeter=0;exitX=-0.109;exitY=0.752;exitDx=0;exitDy=0;exitPerimeter=0;" parent="UmgtCyJm2YXy39TeVFce-7" edge="1">
          <mxGeometry width="60" height="60" relative="1" as="geometry">
            <mxPoint x="244.99999999999977" y="490.08000000000004" as="sourcePoint" />
            <mxPoint x="54.63999999999987" y="490" as="targetPoint" />
            <Array as="points">
              <mxPoint x="141.08999999999992" y="490" />
            </Array>
          </mxGeometry>
        </mxCell>
        <mxCell id="UmgtCyJm2YXy39TeVFce-20" value="6.4: Response" style="edgeLabel;html=1;align=center;verticalAlign=middle;resizable=0;points=[];" parent="UmgtCyJm2YXy39TeVFce-7" vertex="1" connectable="0">
          <mxGeometry x="148.22000000000003" y="480" as="geometry" />
        </mxCell>
        <mxCell id="UmgtCyJm2YXy39TeVFce-52" value="Main" style="shape=umlLifeline;perimeter=lifelinePerimeter;whiteSpace=wrap;html=1;container=1;collapsible=0;recursiveResize=0;outlineConnect=0;rounded=1;shadow=0;comic=0;labelBackgroundColor=none;strokeWidth=1;fontFamily=Verdana;fontSize=12;align=center;fillColor=#dae8fc;strokeColor=#6c8ebf;" parent="1" vertex="1">
          <mxGeometry x="1310" y="80" width="100" height="1440" as="geometry" />
        </mxCell>
        <mxCell id="UmgtCyJm2YXy39TeVFce-53" value="" style="html=1;points=[];perimeter=orthogonalPerimeter;rounded=0;shadow=0;comic=0;labelBackgroundColor=none;strokeWidth=1;fontFamily=Verdana;fontSize=12;align=center;" parent="UmgtCyJm2YXy39TeVFce-52" vertex="1">
          <mxGeometry x="45" y="90" width="10" height="20" as="geometry" />
        </mxCell>
        <mxCell id="UmgtCyJm2YXy39TeVFce-56" value="" style="endArrow=classic;html=1;rounded=0;" parent="UmgtCyJm2YXy39TeVFce-52" edge="1">
          <mxGeometry width="50" height="50" relative="1" as="geometry">
            <mxPoint x="256.8899999999999" y="421.56" as="sourcePoint" />
            <mxPoint x="445.1100000000001" y="421.56" as="targetPoint" />
          </mxGeometry>
        </mxCell>
        <mxCell id="UmgtCyJm2YXy39TeVFce-57" value="6.1: ExecuteBackup" style="edgeLabel;html=1;align=center;verticalAlign=middle;resizable=0;points=[];" parent="UmgtCyJm2YXy39TeVFce-56" vertex="1" connectable="0">
          <mxGeometry x="0.0036" relative="1" as="geometry">
            <mxPoint y="-9" as="offset" />
          </mxGeometry>
        </mxCell>
        <mxCell id="UmgtCyJm2YXy39TeVFce-58" value="" style="html=1;labelBackgroundColor=#ffffff;startArrow=none;startFill=0;startSize=6;endArrow=classic;endFill=1;endSize=6;jettySize=auto;orthogonalLoop=1;strokeWidth=1;dashed=1;fontSize=14;rounded=0;entryX=0.855;entryY=0.278;entryDx=0;entryDy=0;entryPerimeter=0;exitX=-0.109;exitY=0.752;exitDx=0;exitDy=0;exitPerimeter=0;" parent="UmgtCyJm2YXy39TeVFce-52" edge="1">
          <mxGeometry width="60" height="60" relative="1" as="geometry">
            <mxPoint x="445.9999999999998" y="320.08000000000004" as="sourcePoint" />
            <mxPoint x="255.63999999999987" y="319.99999999999994" as="targetPoint" />
            <Array as="points">
              <mxPoint x="342.0899999999999" y="320" />
            </Array>
          </mxGeometry>
        </mxCell>
        <mxCell id="UmgtCyJm2YXy39TeVFce-59" value="5.5: Response" style="edgeLabel;html=1;align=center;verticalAlign=middle;resizable=0;points=[];" parent="UmgtCyJm2YXy39TeVFce-52" vertex="1" connectable="0">
          <mxGeometry x="349.22" y="310" as="geometry" />
        </mxCell>
        <mxCell id="UmgtCyJm2YXy39TeVFce-60" value="" style="endArrow=classic;html=1;rounded=0;entryX=1.241;entryY=0.418;entryDx=0;entryDy=0;entryPerimeter=0;exitX=-0.04;exitY=0.07;exitDx=0;exitDy=0;exitPerimeter=0;" parent="UmgtCyJm2YXy39TeVFce-52" edge="1">
          <mxGeometry width="50" height="50" relative="1" as="geometry">
            <mxPoint x="245.60000000000014" y="340.1" as="sourcePoint" />
            <mxPoint x="-69" y="340" as="targetPoint" />
          </mxGeometry>
        </mxCell>
        <mxCell id="UmgtCyJm2YXy39TeVFce-61" value="5.6: MainPage" style="edgeLabel;html=1;align=center;verticalAlign=middle;resizable=0;points=[];" parent="UmgtCyJm2YXy39TeVFce-60" vertex="1" connectable="0">
          <mxGeometry x="0.0124" y="-1" relative="1" as="geometry">
            <mxPoint y="-9" as="offset" />
          </mxGeometry>
        </mxCell>
        <mxCell id="UmgtCyJm2YXy39TeVFce-62" value="Actor" style="shape=umlActor;verticalLabelPosition=bottom;verticalAlign=top;html=1;outlineConnect=0;" parent="1" vertex="1">
          <mxGeometry x="1220" y="60" width="30" height="60" as="geometry" />
        </mxCell>
        <mxCell id="UmgtCyJm2YXy39TeVFce-63" value="&lt;span style=&quot;font-family: Helvetica; font-size: 11px; background-color: rgb(255, 255, 255);&quot;&gt;3: Initialize&lt;/span&gt;" style="html=1;verticalAlign=bottom;endArrow=block;entryX=0;entryY=0;labelBackgroundColor=none;fontFamily=Verdana;fontSize=12;edgeStyle=elbowEdgeStyle;elbow=vertical;rounded=0;" parent="1" source="UmgtCyJm2YXy39TeVFce-29" edge="1">
          <mxGeometry x="-1" y="-104" relative="1" as="geometry">
            <mxPoint x="1960" y="220" as="sourcePoint" />
            <mxPoint x="1960" y="250.14" as="targetPoint" />
            <mxPoint x="-204" y="-31" as="offset" />
          </mxGeometry>
        </mxCell>
        <mxCell id="UmgtCyJm2YXy39TeVFce-64" value="" style="html=1;points=[];perimeter=orthogonalPerimeter;rounded=0;shadow=0;comic=0;labelBackgroundColor=none;strokeWidth=1;fontFamily=Verdana;fontSize=12;align=center;" parent="1" vertex="1">
          <mxGeometry x="1230" y="140" width="10" height="1940" as="geometry" />
        </mxCell>
        <mxCell id="UmgtCyJm2YXy39TeVFce-65" value="" style="endArrow=classic;html=1;rounded=0;" parent="1" edge="1">
          <mxGeometry width="50" height="50" relative="1" as="geometry">
            <mxPoint x="1754.5000000000002" y="210" as="sourcePoint" />
            <mxPoint x="1565" y="210" as="targetPoint" />
          </mxGeometry>
        </mxCell>
        <mxCell id="UmgtCyJm2YXy39TeVFce-66" value="Text" style="edgeLabel;html=1;align=center;verticalAlign=middle;resizable=0;points=[];" parent="UmgtCyJm2YXy39TeVFce-65" vertex="1" connectable="0">
          <mxGeometry x="0.0783" y="-9" relative="1" as="geometry">
            <mxPoint x="-1" as="offset" />
          </mxGeometry>
        </mxCell>
        <mxCell id="UmgtCyJm2YXy39TeVFce-67" value="2: Initialize" style="edgeLabel;html=1;align=center;verticalAlign=middle;resizable=0;points=[];" parent="UmgtCyJm2YXy39TeVFce-65" vertex="1" connectable="0">
          <mxGeometry x="0.0783" y="-9" relative="1" as="geometry">
            <mxPoint x="-1" as="offset" />
          </mxGeometry>
        </mxCell>
        <mxCell id="UmgtCyJm2YXy39TeVFce-68" value="" style="endArrow=classic;html=1;rounded=0;entryX=1.241;entryY=0.418;entryDx=0;entryDy=0;entryPerimeter=0;exitX=-0.04;exitY=0.07;exitDx=0;exitDy=0;exitPerimeter=0;" parent="1" edge="1">
          <mxGeometry width="50" height="50" relative="1" as="geometry">
            <mxPoint x="1554.6000000000001" y="250.10000000000002" as="sourcePoint" />
            <mxPoint x="1240" y="250" as="targetPoint" />
          </mxGeometry>
        </mxCell>
        <mxCell id="UmgtCyJm2YXy39TeVFce-69" value="4 : MainPage" style="edgeLabel;html=1;align=center;verticalAlign=middle;resizable=0;points=[];" parent="UmgtCyJm2YXy39TeVFce-68" vertex="1" connectable="0">
          <mxGeometry x="0.0124" y="-1" relative="1" as="geometry">
            <mxPoint y="-9" as="offset" />
          </mxGeometry>
        </mxCell>
        <mxCell id="UmgtCyJm2YXy39TeVFce-70" value="" style="html=1;labelBackgroundColor=#ffffff;startArrow=none;startFill=0;startSize=6;endArrow=classic;endFill=1;endSize=6;jettySize=auto;orthogonalLoop=1;strokeWidth=1;dashed=1;fontSize=14;rounded=0;exitX=1.1;exitY=0.297;exitDx=0;exitDy=0;exitPerimeter=0;" parent="1" edge="1">
          <mxGeometry width="60" height="60" relative="1" as="geometry">
            <mxPoint x="1240" y="300" as="sourcePoint" />
            <mxPoint x="1558.5" y="300" as="targetPoint" />
          </mxGeometry>
        </mxCell>
        <mxCell id="UmgtCyJm2YXy39TeVFce-71" value="5: ClickAddBackup" style="edgeLabel;html=1;align=center;verticalAlign=middle;resizable=0;points=[];" parent="UmgtCyJm2YXy39TeVFce-70" vertex="1" connectable="0">
          <mxGeometry x="-0.0195" y="3" relative="1" as="geometry">
            <mxPoint y="-5" as="offset" />
          </mxGeometry>
        </mxCell>
        <mxCell id="UmgtCyJm2YXy39TeVFce-72" value="" style="endArrow=classic;html=1;rounded=0;exitX=1.044;exitY=0.231;exitDx=0;exitDy=0;exitPerimeter=0;" parent="1" edge="1">
          <mxGeometry width="50" height="50" relative="1" as="geometry">
            <mxPoint x="1561.19" y="310" as="sourcePoint" />
            <mxPoint x="1755.25" y="310" as="targetPoint" />
          </mxGeometry>
        </mxCell>
        <mxCell id="UmgtCyJm2YXy39TeVFce-73" value="5.1: AddBackup" style="edgeLabel;html=1;align=center;verticalAlign=middle;resizable=0;points=[];" parent="UmgtCyJm2YXy39TeVFce-72" vertex="1" connectable="0">
          <mxGeometry x="0.0036" relative="1" as="geometry">
            <mxPoint y="-9" as="offset" />
          </mxGeometry>
        </mxCell>
        <mxCell id="UmgtCyJm2YXy39TeVFce-83" value="" style="html=1;labelBackgroundColor=#ffffff;startArrow=none;startFill=0;startSize=6;endArrow=classic;endFill=1;endSize=6;jettySize=auto;orthogonalLoop=1;strokeWidth=1;dashed=1;fontSize=14;rounded=0;exitX=1.1;exitY=0.297;exitDx=0;exitDy=0;exitPerimeter=0;entryX=0.075;entryY=0.337;entryDx=0;entryDy=0;entryPerimeter=0;" parent="1" target="UmgtCyJm2YXy39TeVFce-2" edge="1">
          <mxGeometry width="60" height="60" relative="1" as="geometry">
            <mxPoint x="1240" y="900" as="sourcePoint" />
            <mxPoint x="1550" y="900" as="targetPoint" />
          </mxGeometry>
        </mxCell>
        <mxCell id="UmgtCyJm2YXy39TeVFce-84" value="8: ClickSettings" style="edgeLabel;html=1;align=center;verticalAlign=middle;resizable=0;points=[];" parent="UmgtCyJm2YXy39TeVFce-83" vertex="1" connectable="0">
          <mxGeometry x="-0.0195" y="3" relative="1" as="geometry">
            <mxPoint y="-5" as="offset" />
          </mxGeometry>
        </mxCell>
        <mxCell id="UmgtCyJm2YXy39TeVFce-87" value="" style="endArrow=classic;html=1;rounded=0;exitX=0.838;exitY=0.15;exitDx=0;exitDy=0;exitPerimeter=0;" parent="1" source="UmgtCyJm2YXy39TeVFce-11" edge="1">
          <mxGeometry width="50" height="50" relative="1" as="geometry">
            <mxPoint x="1760.94" y="324.47" as="sourcePoint" />
            <mxPoint x="1955" y="324.47" as="targetPoint" />
          </mxGeometry>
        </mxCell>
        <mxCell id="UmgtCyJm2YXy39TeVFce-88" value="5.2: AddBackup" style="edgeLabel;html=1;align=center;verticalAlign=middle;resizable=0;points=[];" parent="UmgtCyJm2YXy39TeVFce-87" vertex="1" connectable="0">
          <mxGeometry x="0.0036" relative="1" as="geometry">
            <mxPoint y="-9" as="offset" />
          </mxGeometry>
        </mxCell>
        <mxCell id="UmgtCyJm2YXy39TeVFce-89" value="" style="html=1;labelBackgroundColor=#ffffff;startArrow=none;startFill=0;startSize=6;endArrow=classic;endFill=1;endSize=6;jettySize=auto;orthogonalLoop=1;strokeWidth=1;dashed=1;fontSize=14;rounded=0;entryX=0.855;entryY=0.278;entryDx=0;entryDy=0;entryPerimeter=0;exitX=-0.109;exitY=0.752;exitDx=0;exitDy=0;exitPerimeter=0;" parent="1" edge="1">
          <mxGeometry width="60" height="60" relative="1" as="geometry">
            <mxPoint x="1954.9999999999998" y="380.08000000000004" as="sourcePoint" />
            <mxPoint x="1764.6399999999999" y="379.99999999999994" as="targetPoint" />
            <Array as="points">
              <mxPoint x="1851.09" y="380" />
            </Array>
          </mxGeometry>
        </mxCell>
        <mxCell id="UmgtCyJm2YXy39TeVFce-90" value="5.4: Response" style="edgeLabel;html=1;align=center;verticalAlign=middle;resizable=0;points=[];" parent="1" vertex="1" connectable="0">
          <mxGeometry x="1858.22" y="370" as="geometry" />
        </mxCell>
        <mxCell id="UmgtCyJm2YXy39TeVFce-91" value="" style="html=1;labelBackgroundColor=#ffffff;startArrow=none;startFill=0;startSize=6;endArrow=classic;endFill=1;endSize=6;jettySize=auto;orthogonalLoop=1;strokeWidth=1;dashed=1;fontSize=14;rounded=0;entryX=0.855;entryY=0.278;entryDx=0;entryDy=0;entryPerimeter=0;" parent="1" edge="1">
          <mxGeometry width="60" height="60" relative="1" as="geometry">
            <mxPoint x="1752.2" y="589" as="sourcePoint" />
            <mxPoint x="1566.25" y="589" as="targetPoint" />
          </mxGeometry>
        </mxCell>
        <mxCell id="UmgtCyJm2YXy39TeVFce-92" value="6.5: Response" style="edgeLabel;html=1;align=center;verticalAlign=middle;resizable=0;points=[];" parent="1" vertex="1" connectable="0">
          <mxGeometry x="1662.7" y="579" as="geometry">
            <mxPoint x="-4" as="offset" />
          </mxGeometry>
        </mxCell>
        <mxCell id="UmgtCyJm2YXy39TeVFce-93" value="" style="endArrow=classic;html=1;rounded=0;entryX=1.241;entryY=0.418;entryDx=0;entryDy=0;entryPerimeter=0;exitX=-0.04;exitY=0.07;exitDx=0;exitDy=0;exitPerimeter=0;" parent="1" edge="1">
          <mxGeometry width="50" height="50" relative="1" as="geometry">
            <mxPoint x="1556" y="620.1000000000001" as="sourcePoint" />
            <mxPoint x="1241.4" y="620" as="targetPoint" />
          </mxGeometry>
        </mxCell>
        <mxCell id="UmgtCyJm2YXy39TeVFce-94" value="6.6: MainPage" style="edgeLabel;html=1;align=center;verticalAlign=middle;resizable=0;points=[];" parent="UmgtCyJm2YXy39TeVFce-93" vertex="1" connectable="0">
          <mxGeometry x="0.0124" y="-1" relative="1" as="geometry">
            <mxPoint y="-9" as="offset" />
          </mxGeometry>
        </mxCell>
        <mxCell id="UmgtCyJm2YXy39TeVFce-95" value="" style="endArrow=classic;html=1;rounded=0;entryX=1.241;entryY=0.418;entryDx=0;entryDy=0;entryPerimeter=0;exitX=-0.04;exitY=0.07;exitDx=0;exitDy=0;exitPerimeter=0;" parent="1" edge="1">
          <mxGeometry width="50" height="50" relative="1" as="geometry">
            <mxPoint x="1555.6000000000001" y="840.1" as="sourcePoint" />
            <mxPoint x="1241" y="840" as="targetPoint" />
          </mxGeometry>
        </mxCell>
        <mxCell id="UmgtCyJm2YXy39TeVFce-96" value="7.6: MainPage" style="edgeLabel;html=1;align=center;verticalAlign=middle;resizable=0;points=[];" parent="UmgtCyJm2YXy39TeVFce-95" vertex="1" connectable="0">
          <mxGeometry x="0.0124" y="-1" relative="1" as="geometry">
            <mxPoint y="-9" as="offset" />
          </mxGeometry>
        </mxCell>
        <mxCell id="UmgtCyJm2YXy39TeVFce-97" value="" style="html=1;points=[];perimeter=orthogonalPerimeter;rounded=0;shadow=0;comic=0;labelBackgroundColor=none;strokeWidth=1;fontFamily=Verdana;fontSize=12;align=center;" parent="1" vertex="1">
          <mxGeometry x="1756" y="1020" width="10" height="630" as="geometry" />
        </mxCell>
        <mxCell id="UmgtCyJm2YXy39TeVFce-264" value="" style="endArrow=classic;html=1;rounded=0;entryX=1.241;entryY=0.418;entryDx=0;entryDy=0;entryPerimeter=0;exitX=-0.04;exitY=0.07;exitDx=0;exitDy=0;exitPerimeter=0;" parent="1" edge="1">
          <mxGeometry width="50" height="50" relative="1" as="geometry">
            <mxPoint x="1555.6000000000001" y="1130.1" as="sourcePoint" />
            <mxPoint x="1241" y="1130" as="targetPoint" />
          </mxGeometry>
        </mxCell>
        <mxCell id="UmgtCyJm2YXy39TeVFce-265" value="9.5: SettingsPage" style="edgeLabel;html=1;align=center;verticalAlign=middle;resizable=0;points=[];" parent="UmgtCyJm2YXy39TeVFce-264" vertex="1" connectable="0">
          <mxGeometry x="0.0124" y="-1" relative="1" as="geometry">
            <mxPoint y="-9" as="offset" />
          </mxGeometry>
        </mxCell>
        <mxCell id="UmgtCyJm2YXy39TeVFce-80" value="" style="endArrow=classic;html=1;rounded=0;entryX=1.241;entryY=0.418;entryDx=0;entryDy=0;entryPerimeter=0;exitX=-0.04;exitY=0.07;exitDx=0;exitDy=0;exitPerimeter=0;" parent="1" edge="1">
          <mxGeometry width="50" height="50" relative="1" as="geometry">
            <mxPoint x="1554.6000000000001" y="1760.1" as="sourcePoint" />
            <mxPoint x="1240" y="1760" as="targetPoint" />
          </mxGeometry>
        </mxCell>
        <mxCell id="UmgtCyJm2YXy39TeVFce-81" value="13.1: MainPage" style="edgeLabel;html=1;align=center;verticalAlign=middle;resizable=0;points=[];" parent="UmgtCyJm2YXy39TeVFce-80" vertex="1" connectable="0">
          <mxGeometry x="0.0124" y="-1" relative="1" as="geometry">
            <mxPoint y="-9" as="offset" />
          </mxGeometry>
        </mxCell>
        <mxCell id="UmgtCyJm2YXy39TeVFce-74" value="" style="html=1;labelBackgroundColor=#ffffff;startArrow=none;startFill=0;startSize=6;endArrow=classic;endFill=1;endSize=6;jettySize=auto;orthogonalLoop=1;strokeWidth=1;dashed=1;fontSize=14;rounded=0;exitX=1.1;exitY=0.297;exitDx=0;exitDy=0;exitPerimeter=0;" parent="1" edge="1">
          <mxGeometry width="60" height="60" relative="1" as="geometry">
            <mxPoint x="1240" y="1880" as="sourcePoint" />
            <mxPoint x="1559" y="1880" as="targetPoint" />
          </mxGeometry>
        </mxCell>
        <mxCell id="UmgtCyJm2YXy39TeVFce-75" value="14: ExitMainPage" style="edgeLabel;html=1;align=center;verticalAlign=middle;resizable=0;points=[];" parent="UmgtCyJm2YXy39TeVFce-74" vertex="1" connectable="0">
          <mxGeometry x="-0.0195" y="3" relative="1" as="geometry">
            <mxPoint y="-5" as="offset" />
          </mxGeometry>
        </mxCell>
        <mxCell id="UmgtCyJm2YXy39TeVFce-115" value="" style="html=1;labelBackgroundColor=#ffffff;startArrow=none;startFill=0;startSize=6;endArrow=classic;endFill=1;endSize=6;jettySize=auto;orthogonalLoop=1;strokeWidth=1;dashed=1;fontSize=14;rounded=0;entryX=0.855;entryY=0.278;entryDx=0;entryDy=0;entryPerimeter=0;" parent="1" edge="1">
          <mxGeometry width="60" height="60" relative="1" as="geometry">
            <mxPoint x="1750.95" y="1980" as="sourcePoint" />
            <mxPoint x="1565" y="1980" as="targetPoint" />
          </mxGeometry>
        </mxCell>
        <mxCell id="UmgtCyJm2YXy39TeVFce-116" value="14.4: Response" style="edgeLabel;html=1;align=center;verticalAlign=middle;resizable=0;points=[];" parent="1" vertex="1" connectable="0">
          <mxGeometry x="1662.7" y="1970" as="geometry" />
        </mxCell>
        <mxCell id="UmgtCyJm2YXy39TeVFce-117" value="" style="endArrow=classic;html=1;rounded=0;" parent="1" edge="1">
          <mxGeometry width="50" height="50" relative="1" as="geometry">
            <mxPoint x="1565.8899999999999" y="1891" as="sourcePoint" />
            <mxPoint x="1754.1100000000001" y="1891" as="targetPoint" />
          </mxGeometry>
        </mxCell>
        <mxCell id="UmgtCyJm2YXy39TeVFce-118" value="14.1: Exit" style="edgeLabel;html=1;align=center;verticalAlign=middle;resizable=0;points=[];" parent="UmgtCyJm2YXy39TeVFce-117" vertex="1" connectable="0">
          <mxGeometry x="0.0036" relative="1" as="geometry">
            <mxPoint y="-9" as="offset" />
          </mxGeometry>
        </mxCell>
        <mxCell id="UmgtCyJm2YXy39TeVFce-119" value="" style="html=1;points=[];perimeter=orthogonalPerimeter;rounded=0;shadow=0;comic=0;labelBackgroundColor=none;strokeWidth=1;fontFamily=Verdana;fontSize=12;align=center;" parent="1" vertex="1">
          <mxGeometry x="1756" y="1880" width="10" height="100" as="geometry" />
        </mxCell>
        <mxCell id="UmgtCyJm2YXy39TeVFce-120" value="" style="endArrow=classic;html=1;rounded=0;exitX=0.838;exitY=0.15;exitDx=0;exitDy=0;exitPerimeter=0;" parent="1" edge="1">
          <mxGeometry width="50" height="50" relative="1" as="geometry">
            <mxPoint x="1764.3799999999997" y="1910.5299999999997" as="sourcePoint" />
            <mxPoint x="1956" y="1910" as="targetPoint" />
          </mxGeometry>
        </mxCell>
        <mxCell id="UmgtCyJm2YXy39TeVFce-121" value="14.2: Exit" style="edgeLabel;html=1;align=center;verticalAlign=middle;resizable=0;points=[];" parent="UmgtCyJm2YXy39TeVFce-120" vertex="1" connectable="0">
          <mxGeometry x="0.0036" relative="1" as="geometry">
            <mxPoint y="-9" as="offset" />
          </mxGeometry>
        </mxCell>
        <mxCell id="UmgtCyJm2YXy39TeVFce-122" value="" style="html=1;labelBackgroundColor=#ffffff;startArrow=none;startFill=0;startSize=6;endArrow=classic;endFill=1;endSize=6;jettySize=auto;orthogonalLoop=1;strokeWidth=1;dashed=1;fontSize=14;rounded=0;entryX=0.855;entryY=0.278;entryDx=0;entryDy=0;entryPerimeter=0;exitX=-0.109;exitY=0.752;exitDx=0;exitDy=0;exitPerimeter=0;" parent="1" edge="1">
          <mxGeometry width="60" height="60" relative="1" as="geometry">
            <mxPoint x="1955.9999999999998" y="1950.08" as="sourcePoint" />
            <mxPoint x="1765.6399999999999" y="1950" as="targetPoint" />
            <Array as="points">
              <mxPoint x="1852.09" y="1950" />
            </Array>
          </mxGeometry>
        </mxCell>
        <mxCell id="UmgtCyJm2YXy39TeVFce-123" value="14.3: Response" style="edgeLabel;html=1;align=center;verticalAlign=middle;resizable=0;points=[];" parent="1" vertex="1" connectable="0">
          <mxGeometry x="1859.22" y="1940" as="geometry" />
        </mxCell>
        <mxCell id="UmgtCyJm2YXy39TeVFce-124" value="" style="html=1;points=[];perimeter=orthogonalPerimeter;rounded=0;shadow=0;comic=0;labelBackgroundColor=none;strokeWidth=1;fontFamily=Verdana;fontSize=12;align=center;" parent="1" vertex="1">
          <mxGeometry x="1956" y="1890" width="10" height="80" as="geometry" />
        </mxCell>
        <mxCell id="UmgtCyJm2YXy39TeVFce-125" value="" style="endArrow=classic;html=1;rounded=0;" parent="1" target="UmgtCyJm2YXy39TeVFce-126" edge="1">
          <mxGeometry width="50" height="50" relative="1" as="geometry">
            <mxPoint x="1555" y="1995" as="sourcePoint" />
            <mxPoint x="1340" y="2000" as="targetPoint" />
          </mxGeometry>
        </mxCell>
        <mxCell id="UmgtCyJm2YXy39TeVFce-126" value="" style="shape=umlDestroy;whiteSpace=wrap;html=1;strokeWidth=3;targetShapes=umlLifeline;" parent="1" vertex="1">
          <mxGeometry x="1330" y="1980" width="30" height="30" as="geometry" />
        </mxCell>
        <mxCell id="UmgtCyJm2YXy39TeVFce-270" value="" style="html=1;labelBackgroundColor=#ffffff;startArrow=none;startFill=0;startSize=6;endArrow=classic;endFill=1;endSize=6;jettySize=auto;orthogonalLoop=1;strokeWidth=1;dashed=1;fontSize=14;rounded=0;exitX=1.1;exitY=0.297;exitDx=0;exitDy=0;exitPerimeter=0;entryX=-0.049;entryY=0.551;entryDx=0;entryDy=0;entryPerimeter=0;" parent="1" target="UmgtCyJm2YXy39TeVFce-2" edge="1">
          <mxGeometry width="60" height="60" relative="1" as="geometry">
            <mxPoint x="1240" y="1340" as="sourcePoint" />
            <mxPoint x="1559" y="1340" as="targetPoint" />
          </mxGeometry>
        </mxCell>
        <mxCell id="UmgtCyJm2YXy39TeVFce-271" value="11: ChooseLogicielMetier" style="edgeLabel;html=1;align=center;verticalAlign=middle;resizable=0;points=[];" parent="UmgtCyJm2YXy39TeVFce-270" vertex="1" connectable="0">
          <mxGeometry x="-0.0195" y="3" relative="1" as="geometry">
            <mxPoint y="-4" as="offset" />
          </mxGeometry>
        </mxCell>
        <mxCell id="UmgtCyJm2YXy39TeVFce-272" value="" style="endArrow=classic;html=1;rounded=0;entryX=1.241;entryY=0.418;entryDx=0;entryDy=0;entryPerimeter=0;exitX=-0.04;exitY=0.07;exitDx=0;exitDy=0;exitPerimeter=0;" parent="1" edge="1">
          <mxGeometry width="50" height="50" relative="1" as="geometry">
            <mxPoint x="1554.6000000000001" y="1441.1" as="sourcePoint" />
            <mxPoint x="1240" y="1441" as="targetPoint" />
          </mxGeometry>
        </mxCell>
        <mxCell id="UmgtCyJm2YXy39TeVFce-273" value="11.5: SettingsPage" style="edgeLabel;html=1;align=center;verticalAlign=middle;resizable=0;points=[];" parent="UmgtCyJm2YXy39TeVFce-272" vertex="1" connectable="0">
          <mxGeometry x="0.0124" y="-1" relative="1" as="geometry">
            <mxPoint y="-9" as="offset" />
          </mxGeometry>
        </mxCell>
        <mxCell id="UmgtCyJm2YXy39TeVFce-284" value="" style="endArrow=classic;html=1;rounded=0;entryX=1.135;entryY=0.716;entryDx=0;entryDy=0;entryPerimeter=0;exitX=-0.04;exitY=0.07;exitDx=0;exitDy=0;exitPerimeter=0;" parent="1" edge="1">
          <mxGeometry width="50" height="50" relative="1" as="geometry">
            <mxPoint x="1554.2500000000002" y="1670.34" as="sourcePoint" />
            <mxPoint x="1241" y="1669.9999999999998" as="targetPoint" />
          </mxGeometry>
        </mxCell>
        <mxCell id="UmgtCyJm2YXy39TeVFce-285" value="12.5: SettingsPage" style="edgeLabel;html=1;align=center;verticalAlign=middle;resizable=0;points=[];" parent="UmgtCyJm2YXy39TeVFce-284" vertex="1" connectable="0">
          <mxGeometry x="0.0124" y="-1" relative="1" as="geometry">
            <mxPoint y="-9" as="offset" />
          </mxGeometry>
        </mxCell>
        <mxCell id="UmgtCyJm2YXy39TeVFce-305" value="" style="html=1;labelBackgroundColor=#ffffff;startArrow=none;startFill=0;startSize=6;endArrow=classic;endFill=1;endSize=6;jettySize=auto;orthogonalLoop=1;strokeWidth=1;dashed=1;fontSize=14;rounded=0;exitX=1.1;exitY=0.297;exitDx=0;exitDy=0;exitPerimeter=0;entryX=-0.054;entryY=0.727;entryDx=0;entryDy=0;entryPerimeter=0;" parent="1" target="UmgtCyJm2YXy39TeVFce-2" edge="1">
          <mxGeometry width="60" height="60" relative="1" as="geometry">
            <mxPoint x="1240" y="1700" as="sourcePoint" />
            <mxPoint x="1559" y="1700" as="targetPoint" />
          </mxGeometry>
        </mxCell>
        <mxCell id="UmgtCyJm2YXy39TeVFce-306" value="13: ExitSettings" style="edgeLabel;html=1;align=center;verticalAlign=middle;resizable=0;points=[];" parent="UmgtCyJm2YXy39TeVFce-305" vertex="1" connectable="0">
          <mxGeometry x="-0.0195" y="3" relative="1" as="geometry">
            <mxPoint y="-5" as="offset" />
          </mxGeometry>
        </mxCell>
        <mxCell id="e04JrF62anCmTTXFyN_h-1" value="14.5: Response" style="edgeLabel;html=1;align=center;verticalAlign=middle;resizable=0;points=[];" parent="1" vertex="1" connectable="0">
          <mxGeometry x="1672.7" y="1980" as="geometry">
            <mxPoint x="-216" y="6" as="offset" />
          </mxGeometry>
        </mxCell>
        <mxCell id="UmgtCyJm2YXy39TeVFce-281" value="" style="html=1;labelBackgroundColor=#ffffff;startArrow=none;startFill=0;startSize=6;endArrow=classic;endFill=1;endSize=6;jettySize=auto;orthogonalLoop=1;strokeWidth=1;dashed=1;fontSize=14;rounded=0;entryX=1.059;entryY=0.857;entryDx=0;entryDy=0;entryPerimeter=0;exitX=-0.033;exitY=0.851;exitDx=0;exitDy=0;exitPerimeter=0;" parent="1" edge="1">
          <mxGeometry width="60" height="60" relative="1" as="geometry">
            <mxPoint x="1953.7599999999995" y="1639.13" as="sourcePoint" />
            <mxPoint x="1764.6799999999996" y="1639.3200000000002" as="targetPoint" />
            <Array as="points">
              <mxPoint x="1846.9299999999998" y="1639.3600000000001" />
            </Array>
          </mxGeometry>
        </mxCell>
        <mxCell id="UmgtCyJm2YXy39TeVFce-278" value="12.3: Response" style="edgeLabel;html=1;align=center;verticalAlign=middle;resizable=0;points=[];" parent="1" vertex="1" connectable="0">
          <mxGeometry x="1858.22" y="1634.13" as="geometry">
            <mxPoint y="-6" as="offset" />
          </mxGeometry>
        </mxCell>
        <mxCell id="UmgtCyJm2YXy39TeVFce-279" value="12.4: Response" style="edgeLabel;html=1;align=center;verticalAlign=middle;resizable=0;points=[];" parent="1" vertex="1" connectable="0">
          <mxGeometry x="1666.01" y="1640" as="geometry" />
        </mxCell>
        <mxCell id="UmgtCyJm2YXy39TeVFce-280" value="" style="html=1;labelBackgroundColor=#ffffff;startArrow=none;startFill=0;startSize=6;endArrow=classic;endFill=1;endSize=6;jettySize=auto;orthogonalLoop=1;strokeWidth=1;dashed=1;fontSize=14;rounded=0;entryX=0.855;entryY=0.278;entryDx=0;entryDy=0;entryPerimeter=0;" parent="1" edge="1">
          <mxGeometry width="60" height="60" relative="1" as="geometry">
            <mxPoint x="1754.26" y="1650" as="sourcePoint" />
            <mxPoint x="1568.31" y="1650" as="targetPoint" />
          </mxGeometry>
        </mxCell>
        <mxCell id="e04JrF62anCmTTXFyN_h-2" value="" style="endArrow=classic;html=1;rounded=0;exitX=1.044;exitY=0.231;exitDx=0;exitDy=0;exitPerimeter=0;entryX=0.014;entryY=0.558;entryDx=0;entryDy=0;entryPerimeter=0;" parent="1" edge="1">
          <mxGeometry width="50" height="50" relative="1" as="geometry">
            <mxPoint x="1766" y="1610.47" as="sourcePoint" />
            <mxPoint x="1955" y="1609.52" as="targetPoint" />
          </mxGeometry>
        </mxCell>
        <mxCell id="e04JrF62anCmTTXFyN_h-3" value="7.3: UpdateLogsInformation" style="edgeLabel;html=1;align=center;verticalAlign=middle;resizable=0;points=[];" parent="e04JrF62anCmTTXFyN_h-2" vertex="1" connectable="0">
          <mxGeometry x="0.0036" relative="1" as="geometry">
            <mxPoint y="-9" as="offset" />
          </mxGeometry>
        </mxCell>
        <mxCell id="UmgtCyJm2YXy39TeVFce-28" value="ViewModel" style="shape=umlLifeline;perimeter=lifelinePerimeter;whiteSpace=wrap;html=1;container=1;collapsible=0;recursiveResize=0;outlineConnect=0;rounded=1;shadow=0;comic=0;labelBackgroundColor=none;strokeWidth=1;fontFamily=Verdana;fontSize=12;align=center;fillColor=#e1d5e7;strokeColor=#9673a6;" parent="1" vertex="1">
          <mxGeometry x="1910" y="80" width="100" height="2120" as="geometry" />
        </mxCell>
        <mxCell id="UmgtCyJm2YXy39TeVFce-29" value="" style="html=1;points=[];perimeter=orthogonalPerimeter;rounded=0;shadow=0;comic=0;labelBackgroundColor=none;strokeWidth=1;fontFamily=Verdana;fontSize=12;align=center;" parent="UmgtCyJm2YXy39TeVFce-28" vertex="1">
          <mxGeometry x="45" y="141" width="10" height="29" as="geometry" />
        </mxCell>
        <mxCell id="UmgtCyJm2YXy39TeVFce-30" value="" style="html=1;points=[];perimeter=orthogonalPerimeter;rounded=0;shadow=0;comic=0;labelBackgroundColor=none;strokeWidth=1;fontFamily=Verdana;fontSize=12;align=center;" parent="UmgtCyJm2YXy39TeVFce-28" vertex="1">
          <mxGeometry x="45" y="240" width="10" height="80" as="geometry" />
        </mxCell>
        <mxCell id="UmgtCyJm2YXy39TeVFce-31" value="" style="html=1;points=[];perimeter=orthogonalPerimeter;rounded=0;shadow=0;comic=0;labelBackgroundColor=none;strokeWidth=1;fontFamily=Verdana;fontSize=12;align=center;" parent="UmgtCyJm2YXy39TeVFce-28" vertex="1">
          <mxGeometry x="45" y="430" width="10" height="80" as="geometry" />
        </mxCell>
        <mxCell id="UmgtCyJm2YXy39TeVFce-32" value="" style="html=1;points=[];perimeter=orthogonalPerimeter;rounded=0;shadow=0;comic=0;labelBackgroundColor=none;strokeWidth=1;fontFamily=Verdana;fontSize=12;align=center;" parent="UmgtCyJm2YXy39TeVFce-28" vertex="1">
          <mxGeometry x="-155" y="630" width="10" height="100" as="geometry" />
        </mxCell>
        <mxCell id="UmgtCyJm2YXy39TeVFce-33" value="" style="endArrow=classic;html=1;rounded=0;exitX=1.044;exitY=0.231;exitDx=0;exitDy=0;exitPerimeter=0;entryX=0.014;entryY=0.558;entryDx=0;entryDy=0;entryPerimeter=0;" parent="UmgtCyJm2YXy39TeVFce-28" edge="1">
          <mxGeometry width="50" height="50" relative="1" as="geometry">
            <mxPoint x="-144" y="668.95" as="sourcePoint" />
            <mxPoint x="45" y="668" as="targetPoint" />
          </mxGeometry>
        </mxCell>
        <mxCell id="UmgtCyJm2YXy39TeVFce-34" value="7.3: UpdateLogs" style="edgeLabel;html=1;align=center;verticalAlign=middle;resizable=0;points=[];" parent="UmgtCyJm2YXy39TeVFce-33" vertex="1" connectable="0">
          <mxGeometry x="0.0036" relative="1" as="geometry">
            <mxPoint y="-9" as="offset" />
          </mxGeometry>
        </mxCell>
        <mxCell id="UmgtCyJm2YXy39TeVFce-35" value="" style="endArrow=classic;html=1;rounded=0;exitX=0.838;exitY=0.15;exitDx=0;exitDy=0;exitPerimeter=0;" parent="UmgtCyJm2YXy39TeVFce-28" source="UmgtCyJm2YXy39TeVFce-32" edge="1">
          <mxGeometry width="50" height="50" relative="1" as="geometry">
            <mxPoint x="-149.05999999999995" y="644.47" as="sourcePoint" />
            <mxPoint x="45" y="644.47" as="targetPoint" />
          </mxGeometry>
        </mxCell>
        <mxCell id="UmgtCyJm2YXy39TeVFce-36" value="7.2: RecoverBackup" style="edgeLabel;html=1;align=center;verticalAlign=middle;resizable=0;points=[];" parent="UmgtCyJm2YXy39TeVFce-35" vertex="1" connectable="0">
          <mxGeometry x="0.0036" relative="1" as="geometry">
            <mxPoint y="-9" as="offset" />
          </mxGeometry>
        </mxCell>
        <mxCell id="UmgtCyJm2YXy39TeVFce-37" value="" style="html=1;labelBackgroundColor=#ffffff;startArrow=none;startFill=0;startSize=6;endArrow=classic;endFill=1;endSize=6;jettySize=auto;orthogonalLoop=1;strokeWidth=1;dashed=1;fontSize=14;rounded=0;entryX=0.855;entryY=0.278;entryDx=0;entryDy=0;entryPerimeter=0;exitX=-0.109;exitY=0.752;exitDx=0;exitDy=0;exitPerimeter=0;" parent="UmgtCyJm2YXy39TeVFce-28" edge="1">
          <mxGeometry width="60" height="60" relative="1" as="geometry">
            <mxPoint x="44.99999999999977" y="700.08" as="sourcePoint" />
            <mxPoint x="-145.36000000000013" y="700" as="targetPoint" />
            <Array as="points">
              <mxPoint x="-58.91000000000008" y="700" />
            </Array>
          </mxGeometry>
        </mxCell>
        <mxCell id="UmgtCyJm2YXy39TeVFce-38" value="7.4: Response" style="edgeLabel;html=1;align=center;verticalAlign=middle;resizable=0;points=[];" parent="UmgtCyJm2YXy39TeVFce-28" vertex="1" connectable="0">
          <mxGeometry x="-51.77999999999997" y="690" as="geometry" />
        </mxCell>
        <mxCell id="UmgtCyJm2YXy39TeVFce-39" value="" style="html=1;points=[];perimeter=orthogonalPerimeter;rounded=0;shadow=0;comic=0;labelBackgroundColor=none;strokeWidth=1;fontFamily=Verdana;fontSize=12;align=center;" parent="UmgtCyJm2YXy39TeVFce-28" vertex="1">
          <mxGeometry x="45" y="640" width="10" height="80" as="geometry" />
        </mxCell>
        <mxCell id="UmgtCyJm2YXy39TeVFce-40" value="" style="endArrow=classic;html=1;rounded=0;" parent="UmgtCyJm2YXy39TeVFce-28" edge="1">
          <mxGeometry width="50" height="50" relative="1" as="geometry">
            <mxPoint x="-343.1100000000001" y="631.56" as="sourcePoint" />
            <mxPoint x="-154.88999999999987" y="631.56" as="targetPoint" />
          </mxGeometry>
        </mxCell>
        <mxCell id="UmgtCyJm2YXy39TeVFce-41" value="7.1: RecoverBackup" style="edgeLabel;html=1;align=center;verticalAlign=middle;resizable=0;points=[];" parent="UmgtCyJm2YXy39TeVFce-40" vertex="1" connectable="0">
          <mxGeometry x="0.0036" relative="1" as="geometry">
            <mxPoint y="-9" as="offset" />
          </mxGeometry>
        </mxCell>
        <mxCell id="UmgtCyJm2YXy39TeVFce-42" value="" style="html=1;labelBackgroundColor=#ffffff;startArrow=none;startFill=0;startSize=6;endArrow=classic;endFill=1;endSize=6;jettySize=auto;orthogonalLoop=1;strokeWidth=1;dashed=1;fontSize=14;rounded=0;entryX=0.855;entryY=0.278;entryDx=0;entryDy=0;entryPerimeter=0;" parent="UmgtCyJm2YXy39TeVFce-28" edge="1">
          <mxGeometry width="60" height="60" relative="1" as="geometry">
            <mxPoint x="-157.79999999999995" y="719" as="sourcePoint" />
            <mxPoint x="-343.75" y="719" as="targetPoint" />
          </mxGeometry>
        </mxCell>
        <mxCell id="UmgtCyJm2YXy39TeVFce-43" value="7.5: Response" style="edgeLabel;html=1;align=center;verticalAlign=middle;resizable=0;points=[];" parent="UmgtCyJm2YXy39TeVFce-28" vertex="1" connectable="0">
          <mxGeometry x="-247.29999999999995" y="709" as="geometry">
            <mxPoint x="-4" as="offset" />
          </mxGeometry>
        </mxCell>
        <mxCell id="UmgtCyJm2YXy39TeVFce-287" value="" style="rounded=0;whiteSpace=wrap;html=1;" parent="UmgtCyJm2YXy39TeVFce-28" vertex="1">
          <mxGeometry x="45" y="1480" width="10" height="100" as="geometry" />
        </mxCell>
      </root>
    </mxGraphModel>
  </diagram>
</mxfile>
